<svg xmlns="http://www.w3.org/2000/svg" width="95" height="21" viewBox="0 0 95 21"><g fill="none"><path fill="#FFE418" d="M52.304 16.387c1.753 0 2.669-.592 2.669-1.83 0-1.212-.944-1.883-2.775-1.883-.679 0-1.49.054-2.379.189l0-4.088c.73.083 1.413.108 2.092.108 1.884 0 2.824-.565 2.824-1.853 0-1.263-.86-1.853-2.638-1.853-1.153 0-2.615.324-4.418.89l0-4.264c1.6-.567 3.532-.834 5.806-.834 4.945 0 7.795 2.178 7.795 5.597 0 2.098-1.332 3.63-3.662 4.143 2.59.54 3.922 2.02 3.922 4.28 0 3.547-2.899 5.616-8.445 5.616-1.86 0-3.686-.266-5.57-.723l0-4.387c1.86.565 3.427.889 4.79.889l-.011.003Zm20.635-8.421c3.897 0 6.486 2.447 6.486 6.052 0 3.876-2.956 6.566-7.61 6.566-5.493 0-9.025-3.525-9.025-9.308 0-6.59 3.743-10.303 10.49-10.303 1.446 0 2.989.166 4.58.515l0 4.28c-1.461-.458-2.874-.674-4.368-.674-2.98 0-4.369 1.238-4.442 4.038 1.105-.856 2.306-1.155 3.898-1.155l-.01-.011Zm.549 5.92c0-1.562-.863-2.559-2.118-2.559-1.255 0-2.093.969-2.093 2.56 0 1.558.838 2.527 2.093 2.527 1.281 0 2.118-.969 2.118-2.528Zm7.873-12.432 12.737 0 0 4.467-6.78 0 0 2.825c.544-.028.918-.054 1.04-.054 4.205 0 6.487 2.185 6.487 5.866 0 3.797-2.777 6.057-8.185 6.057-1.883 0-3.743-.291-5.627-.773l0-4.254c1.438.407 2.696.598 3.768.598 2.192 0 3.345-.756 3.345-2.152 0-1.555-1.202-2.336-3.662-2.336-1.047 0-2.068.188-3.14.457l0-10.701.017 0Z"/><path fill="#FFF" d="m0 0 6.455 0 0 7.929c.918-1.29 2.176-1.893 3.881-1.893 3.753 0 5.879 2.688 5.879 7.463 0 4.556-2.152 7.273-5.72 7.273-2.178 0-3.648-.823-4.486-2.58l0 2.387-6.009 0 0-20.579Zm6.27 13.36c0 2.088.447 3.103 1.601 3.103 1.129 0 1.627-1.014 1.627-3.102 0-2.077-.473-3.099-1.627-3.099-1.154 0-1.601 1.022-1.601 3.1l0-.002Zm26.446 1.321-8.945 0c.157 1.54 1.312 2.269 3.49 2.269 1.52 0 3.095-.297 4.615-.891l0 3.59c-1.494.62-3.54.972-5.927.972-5.51 0-8.475-2.7-8.475-7.45 0-4.642 2.915-7.421 7.77-7.421 5.384 0 7.479 2.563 7.479 8.016l0 .916-.007 0Zm-5.614-2.725 0-.432c0-1.593-.577-2.51-1.68-2.51-1.128 0-1.704.917-1.704 2.538l0 .403 3.384 0 0 .001Zm18.368-5.83 0 4.13-3.01 0 0 3.374c0 1.728.266 2.538 1.557 2.538.35 0 .82-.058 1.373-.191l0 4.046c-1.397.432-2.793.59-4.271.59-1.819 0-3.216-.598-4.036-1.62-1.055-1.354-1.08-3.05-1.08-5.318l0-3.423-2.306 0 0-4.128 2.297 0 0-3.128 6.466-2.079 0 5.21 3.01 0Z"/></g></svg>