<svg xmlns="http://www.w3.org/2000/svg" width="249.83" height="51.927" viewBox="0 0 249.83 51.927">
  <g id="LogoSport-CO" transform="translate(-0.1 -16.373)">
    <path id="Path_6681" data-name="Path 6681" d="M143.6,8.1h.351V57.758H143.6Zm63.966,0h.351V57.758h-.351Zm-42.854,8.7a2.019,2.019,0,0,0-2.174-1.613c-1.824,0-2.6,1.473-2.6,3.086,0,1.753.771,3.156,2.6,3.156a2.1,2.1,0,0,0,2.174-2.174h1.052a3.1,3.1,0,0,1-3.3,3.016c-2.385,0-3.507-1.753-3.507-3.928s1.262-4,3.647-4a2.9,2.9,0,0,1,3.156,2.455Zm7.154,5.26a1.4,1.4,0,0,1-.631.14c-.491,0-.772-.281-.772-.842a2.547,2.547,0,0,1-1.964.842c-.982,0-1.824-.421-1.824-1.543,0-1.262.912-1.473,1.894-1.683s1.894-.14,1.894-.842c0-.772-.631-.912-1.262-.912-.772,0-1.333.21-1.4,1.052h-.912c.07-1.333,1.122-1.824,2.315-1.824.982,0,2.1.21,2.1,1.473v2.806c0,.421,0,.631.281.631a.422.422,0,0,0,.281-.07v.772Zm-1.473-2.806a3.756,3.756,0,0,1-1.683.351c-.631.14-1.122.351-1.122.982,0,.561.491.842,1.052.842,1.192,0,1.683-.772,1.683-1.262l.07-.912Zm2.876,1.122c0,.842.772,1.052,1.473,1.052.561,0,1.333-.14,1.333-.842s-.912-.842-1.824-.982-1.824-.491-1.824-1.543c0-1.122,1.122-1.543,2.034-1.543,1.192,0,2.174.351,2.244,1.683h-.912c-.07-.7-.7-.912-1.263-.912s-1.192.14-1.192.7c0,.631.982.772,1.824.982.912.21,1.824.491,1.824,1.543,0,1.333-1.262,1.753-2.385,1.753-1.263,0-2.315-.491-2.315-1.824l.982-.07Zm9.679,1.683a1.4,1.4,0,0,1-.631.14c-.491,0-.771-.281-.771-.842a2.547,2.547,0,0,1-1.964.842c-.982,0-1.824-.421-1.824-1.543,0-1.262.912-1.473,1.894-1.683s1.894-.14,1.894-.842c0-.772-.631-.912-1.262-.912-.772,0-1.333.21-1.4,1.052h-.912c.07-1.333,1.122-1.824,2.315-1.824.982,0,2.1.21,2.1,1.473v2.806c0,.421,0,.631.281.631a.422.422,0,0,0,.281-.07v.772Zm-1.473-2.806a3.756,3.756,0,0,1-1.683.351c-.631.14-1.122.351-1.122.982,0,.561.491.842,1.052.842,1.192,0,1.683-.772,1.683-1.262v-.912Zm10.24,2.806H190.8v-.7h0a1.754,1.754,0,0,1-1.753.842c-1.683,0-2.525-1.333-2.525-2.876s.842-2.876,2.525-2.876a2.241,2.241,0,0,1,1.824.842h0V14.483h.912l-.07,7.575Zm-2.525-.631c1.192,0,1.683-1.052,1.683-2.034,0-1.052-.491-2.1-1.753-2.1s-1.683,1.052-1.683,2.1A1.81,1.81,0,0,0,189.19,21.426Zm8.7-1.052a2.291,2.291,0,0,1-2.385,1.894c-1.753,0-2.6-1.192-2.665-2.876a2.705,2.705,0,0,1,2.6-2.876c1.964,0,2.6,1.824,2.525,3.156h-4.138a1.637,1.637,0,0,0,1.753,1.824,1.266,1.266,0,0,0,1.4-1.052l.912-.07Zm-.842-1.543a1.619,1.619,0,0,0-1.613-1.543,1.573,1.573,0,0,0-1.613,1.543Zm-40.82,8.837h1.122l3.016,7.575h-1.122L158.4,33h-3.226l-.842,2.244h-1.052l2.946-7.575Zm-.772,4.419h2.6l-1.263-3.507h0Zm5.541-2.315h.912v.7h0a1.754,1.754,0,0,1,1.753-.842c1.683,0,2.525,1.333,2.525,2.876s-.842,2.876-2.525,2.876a2.241,2.241,0,0,1-1.824-.842h0v2.806h-.912l.07-7.575Zm2.525.631c-1.192,0-1.683,1.052-1.683,2.034,0,1.052.491,2.1,1.753,2.1s1.683-1.052,1.683-2.1a1.81,1.81,0,0,0-1.753-2.034Zm8.346,4.84h-.842V34.4h0a1.839,1.839,0,0,1-1.824.982c-1.473,0-1.894-.842-1.894-2.034V29.773h.912V33.49a1.032,1.032,0,0,0,1.122,1.122,1.5,1.5,0,0,0,1.613-1.683V29.773h.912v5.471Zm6.1-1.753a2.291,2.291,0,0,1-2.385,1.894c-1.753,0-2.6-1.192-2.665-2.876a2.705,2.705,0,0,1,2.6-2.876c1.964,0,2.6,1.824,2.525,3.156H173.9a1.637,1.637,0,0,0,1.753,1.824,1.266,1.266,0,0,0,1.4-1.052l.912-.07Zm-.842-1.543a1.619,1.619,0,0,0-1.613-1.543,1.573,1.573,0,0,0-1.613,1.543Zm2.455,1.543c0,.842.772,1.052,1.473,1.052.561,0,1.333-.14,1.333-.842s-.912-.842-1.824-.982c-.912-.21-1.824-.491-1.824-1.543,0-1.122,1.122-1.543,2.034-1.543,1.192,0,2.174.351,2.244,1.683h-.912c-.07-.7-.7-.912-1.262-.912s-1.192.14-1.192.7c0,.631.982.772,1.824.982.912.21,1.824.491,1.824,1.543,0,1.333-1.262,1.753-2.385,1.753-1.262,0-2.315-.491-2.315-1.824l.982-.07Zm6.1-3.717h1.122v.772h-1.122v3.437c0,.421.14.491.7.491h.421v.772h-.7c-.912,0-1.333-.21-1.333-1.192V30.544h-.912v-.772h.912V28.159h.912Zm7.014,5.4a1.4,1.4,0,0,1-.631.14c-.491,0-.772-.281-.772-.842a2.547,2.547,0,0,1-1.964.842c-.982,0-1.824-.421-1.824-1.543,0-1.262.912-1.473,1.894-1.683s1.894-.14,1.894-.842c0-.772-.631-.912-1.263-.912-.772,0-1.333.21-1.4,1.052h-.912c.07-1.333,1.122-1.824,2.315-1.824.982,0,2.1.21,2.1,1.473v2.806c0,.421,0,.631.281.631a.422.422,0,0,0,.281-.07v.772Zm-1.473-2.735a3.757,3.757,0,0,1-1.683.351c-.631.14-1.122.351-1.122.982,0,.561.491.842,1.052.842,1.192,0,1.683-.772,1.683-1.262v-.912ZM194.1,33.49c0,.842.772,1.052,1.473,1.052.561,0,1.333-.14,1.333-.842s-.912-.842-1.824-.982c-.912-.21-1.824-.491-1.824-1.543,0-1.122,1.122-1.543,2.034-1.543,1.192,0,2.174.351,2.244,1.683h-.912c-.07-.7-.7-.912-1.262-.912s-1.192.14-1.192.7c0,.631.982.772,1.824.982.912.21,1.824.491,1.824,1.543,0,1.333-1.262,1.753-2.385,1.753-1.263,0-2.315-.491-2.315-1.824l.982-.07Zm-21.813,6.663c2.455,0,3.647,1.894,3.647,3.928a3.657,3.657,0,1,1-7.294,0C168.639,42.047,169.832,40.153,172.286,40.153Zm0,7.084c1.894,0,2.665-1.613,2.665-3.086,0-1.543-.772-3.086-2.665-3.086s-2.665,1.613-2.665,3.086S170.393,47.237,172.286,47.237Zm5.12-4.068h-.912V42.4h.912v-.842c0-.912.561-1.333,1.543-1.333a1.367,1.367,0,0,1,.561.07v.772a1.194,1.194,0,0,0-.491-.07c-.421,0-.7.14-.7.631V42.4h1.052v.772h-1.052v4.7h-.912v-4.7Zm2.876-1.753V40.293h.912v1.122Zm0,6.453V42.4h.912v5.471Zm6.1-3.717a1.318,1.318,0,0,0-1.4-1.122c-1.333,0-1.753,1.052-1.753,2.174,0,.982.491,2.034,1.613,2.034a1.428,1.428,0,0,0,1.543-1.333h.912a2.284,2.284,0,0,1-2.455,2.1,2.525,2.525,0,0,1-2.6-2.806c0-1.613.842-2.946,2.6-2.946a2.1,2.1,0,0,1,2.385,1.894Zm2.946-2.735h-.912V40.293h.912Zm-.912.982h.912v5.471h-.912Zm7.224,5.471a1.4,1.4,0,0,1-.631.14c-.491,0-.771-.281-.771-.842a2.547,2.547,0,0,1-1.964.842c-.982,0-1.824-.421-1.824-1.543,0-1.262.912-1.473,1.894-1.683s1.894-.14,1.894-.842c0-.772-.631-.912-1.262-.912-.772,0-1.333.21-1.4,1.052h-.912c.07-1.333,1.122-1.824,2.315-1.824.982,0,2.1.21,2.1,1.473v2.806c0,.421,0,.631.281.631a.422.422,0,0,0,.281-.07v.772Zm-1.473-2.806a3.756,3.756,0,0,1-1.683.351c-.631.14-1.122.351-1.122.982,0,.561.491.842,1.052.842,1.192,0,1.683-.772,1.683-1.262v-.912h.07Zm2.385-4.769h.912v7.575h-.912Z" transform="translate(-1.755 9.587)" fill="#fff"/>
    <path id="Path_6682" data-name="Path 6682" d="M15.813,52.575a4.914,4.914,0,0,1-4.285,2.637A5.844,5.844,0,0,1,5.7,49.168c0-2.967,1.978-6.043,5.6-6.043a4.934,4.934,0,0,1,4.505,2.747l.11.11h6.153l-.11-.33a11.074,11.074,0,0,0-10.658-7.582,11.445,11.445,0,0,0-7.8,3.077A10.9,10.9,0,0,0,.1,49.058,11.237,11.237,0,0,0,11.308,60.266a10.748,10.748,0,0,0,10.548-7.472l.11-.44H15.813v.22ZM34.932,37.961a11.161,11.161,0,0,0-11.208,11.1v.11a11.264,11.264,0,0,0,22.525,0A11.5,11.5,0,0,0,34.932,37.961Zm0,17.141a5.6,5.6,0,1,1,5.714-5.6,5.723,5.723,0,0,1-5.714,5.6ZM64.819,40.378a9.516,9.516,0,0,0-6.043-2.307A10.951,10.951,0,0,0,47.9,49.168a11.264,11.264,0,0,0,22.525,0V29.5h-5.6ZM59.1,55.1a5.6,5.6,0,1,1,5.714-5.6A5.875,5.875,0,0,1,59.1,55.1Zm28.239-.33A6.757,6.757,0,0,1,79.432,52.9l15.823-6.593L94.6,44.883c-2.417-5.714-8.351-8.461-14.614-5.824s-8.79,8.9-6.373,14.614,9.34,8.021,15.493,5.494a12.971,12.971,0,0,0,6.483-5.824L90.97,51.036a6.106,6.106,0,0,1-3.626,3.736ZM81.85,43.235A5.643,5.643,0,0,1,88,44.334l-9.889,4.175a5.98,5.98,0,0,1,3.736-5.274Zm45.49,7.692a6.463,6.463,0,0,1-3.736,3.846,6.757,6.757,0,0,1-7.911-1.868l15.823-6.593-.659-1.428c-2.417-5.714-8.351-8.461-14.614-5.824-6.153,2.637-8.79,8.9-6.373,14.614s9.34,8.021,15.493,5.494a12.971,12.971,0,0,0,6.483-5.824l-4.505-2.417Zm-9.23-7.692a5.643,5.643,0,0,1,6.153,1.1l-9.889,4.175A5.98,5.98,0,0,1,118.11,43.235ZM98,47.85V59.717h5.6V48.509c0-3.406,1.978-5.054,4.725-5.054V38.51C101.957,38.62,98,42.685,98,47.85Z" transform="translate(0 -6.813)" fill="#79c000"/>
    <g id="real_madrid" transform="translate(196.644 15.373)">
      <path id="Path_6689" data-name="Path 6689" d="M34.693,17.082a.392.392,0,1,1,.392-.392h0a.382.382,0,0,1-.392.392M29.856,18.4a.392.392,0,1,1,.392-.392.383.383,0,0,1-.392.392h0m9.871-1.315a.392.392,0,1,1,.391-.392.366.366,0,0,1-.391.392h0m9.06-2.068a.7.7,0,1,1-.95.279.715.715,0,0,1,.95-.279h0M35.98,6.708a.392.392,0,1,1,.392-.392.383.383,0,0,1-.392.392m1.23,1.23a.391.391,0,1,1,.392-.391.366.366,0,0,1-.392.391m0,1.426a.392.392,0,1,1,.392-.392.367.367,0,0,1-.392.392m0,1.426A.392.392,0,1,1,37.6,10.4a.382.382,0,0,1-.392.392M34.693,6.932a.392.392,0,1,1,.392-.392h0a.383.383,0,0,1-.392.392m-1.23.476a.392.392,0,1,1,.392-.392h0a.383.383,0,0,1-.392.392m-1.2.782a.392.392,0,1,1,.392-.392h0a.383.383,0,0,1-.392.392m-.922,1.063a.392.392,0,1,1,.391-.392.42.42,0,0,1-.391.392M30.08,9.169a.392.392,0,1,1,.392-.392.421.421,0,0,1-.392.392h0m-1.231.476a.392.392,0,1,1,.392-.392.4.4,0,0,1-.392.392m-1.146.839a.392.392,0,1,1,.392-.392.4.4,0,0,1-.392.392h0m-.951,1.09a.392.392,0,1,1,.392-.392.383.383,0,0,1-.392.392h0M26.165,12.8a.392.392,0,1,1,.392-.392.383.383,0,0,1-.392.392h0m-.308,1.4a.392.392,0,1,1,.392-.392.383.383,0,0,1-.392.392m4.865-3.691a.392.392,0,1,1,.392-.392h0a.422.422,0,0,1-.392.392h0m-.336,1.4a.392.392,0,1,1,.392-.392.382.382,0,0,1-.392.392h0m6.851,1.2a.7.7,0,1,1,.7-.7.692.692,0,0,1-.7.7h0m-5.873.755a.709.709,0,1,1,.5-.867.69.69,0,0,1-.5.867h0m-5.034,2.377a.7.7,0,1,1-.671-1.23.7.7,0,0,1,.951.279.67.67,0,0,1-.28.951M38.469,5.926a.392.392,0,1,1-.392.392h0a.382.382,0,0,1,.392-.392m1.286.224a.392.392,0,1,1-.392.392.383.383,0,0,1,.392-.392m1.258.475a.392.392,0,1,1-.391.392.383.383,0,0,1,.391-.392m1.2.783a.391.391,0,1,1-.391.391h0a.383.383,0,0,1,.391-.391m.9,1.062a.392.392,0,1,1-.392.392h0a.4.4,0,0,1,.392-.392m1.258-.112a.392.392,0,1,1-.392.392.423.423,0,0,1,.392-.392h0m1.231.475a.392.392,0,1,1-.392.392h0a.446.446,0,0,1,.392-.392m1.146.839a.391.391,0,1,1-.391.392h0a.446.446,0,0,1,.391-.392m.951,1.119a.392.392,0,1,1-.391.392.383.383,0,0,1,.391-.392h0m.587,1.23a.392.392,0,1,1-.392.392.383.383,0,0,1,.392-.392h0m.308,1.4a.392.392,0,1,1-.392.392.4.4,0,0,1,.392-.392h0M43.726,9.7a.392.392,0,1,1-.391.392h0a.444.444,0,0,1,.391-.392m.335,1.4a.392.392,0,1,1-.392.392.42.42,0,0,1,.392-.392h0m-.642,1.4a.709.709,0,1,1-.868.5.749.749,0,0,1,.868-.5h0M21.411,36.629a15.8,15.8,0,1,1,15.8,15.8h0a15.819,15.819,0,0,1-15.8-15.8M44.592,18.4a.392.392,0,1,1,.391-.392.383.383,0,0,1-.391.392" transform="translate(-2.575 -2.325)" fill="#fff"/>
      <path id="Path_6690" data-name="Path 6690" d="M50.825,17.481a.882.882,0,0,0,.531-.643,9.762,9.762,0,0,1,1.287.363,2.8,2.8,0,0,1,.867.532,6.6,6.6,0,0,1,.392,1.93,1.1,1.1,0,0,0-.531.644.889.889,0,0,0,.279,1.118.676.676,0,0,1-.727-.671v-.084a.946.946,0,0,0,.168-.336.879.879,0,0,0-1.706-.42c0,.056-.028.084-.028.14a.706.706,0,0,1-.979.112.6.6,0,0,1-.253-.5.889.889,0,0,0,1.175-.727.86.86,0,0,0-.42-1.09c-.026-.141-.026-.252-.055-.364m-1.231,3.048c-.307-.084-.615-.168-.951-.251a1.62,1.62,0,0,0,.644-.5,1.223,1.223,0,0,0,.307.755m2.125.307a.978.978,0,0,0,.252.112h.056a1.87,1.87,0,0,0,.2.5c-.336-.14-.671-.279-1.006-.392a1.359,1.359,0,0,0,.5-.223m-8.081-1.789a1.5,1.5,0,0,0,.475.7H43.108a2.229,2.229,0,0,0,.532-.7M34.97,21.48a1.356,1.356,0,0,0,.2-.5h.056a.994.994,0,0,0,.252-.112,1.383,1.383,0,0,0,.5.224c-.336.139-.672.251-1.007.391m3.635-1.2c-.307.084-.615.167-.951.251a1.5,1.5,0,0,0,.308-.755,1.4,1.4,0,0,0,.643.5m2.1-.9a.354.354,0,0,0,.168-.028,1.537,1.537,0,0,0,.5.448c-.363.027-.727.084-1.09.139a1.181,1.181,0,0,0,.419-.559m5.844.028a1.566,1.566,0,0,0,.391.56c-.363-.056-.727-.112-1.091-.14a1.932,1.932,0,0,0,.5-.448.541.541,0,0,1,.2.028" transform="translate(-8.976 -7.477)" fill="#c62c46"/>
      <path id="Path_6691" data-name="Path 6691" d="M50.407,21.7l.531-.2.028.084.112.419-.419.224-.084.056-.056-.14Zm-16.414,0-.111.448-.028.168-.084-.056-.42-.224.112-.419.028-.084.14.056Zm9.452-1.705-1.259.475-1.258-.475,1.258-.476Zm-10.235-4.5a6.707,6.707,0,0,1,1.287-.363.881.881,0,0,0,.531.643,1.4,1.4,0,0,0-.056.363.862.862,0,0,0-.419,1.09.9.9,0,0,0,1.175.727A.711.711,0,0,1,35,18.62a.678.678,0,0,1-.5-.252.207.207,0,0,0-.029-.14.874.874,0,0,0-1.062-.644.832.832,0,0,0-.671,1.035.667.667,0,0,0,.2.363.62.62,0,0,1-.363.643.885.885,0,0,1-.392.084.832.832,0,0,0,.279-1.119,1.173,1.173,0,0,0-.5-.644,6.4,6.4,0,0,1,.392-1.93,3.469,3.469,0,0,1,.866-.529m9.647-2.181a7.615,7.615,0,0,1,4.67.7,5.929,5.929,0,0,1,.28,1.175.884.884,0,0,0-.391.391.863.863,0,0,0-.895.755.887.887,0,0,0,.671,1.2.688.688,0,0,1-.951.224.742.742,0,0,1-.335-.56.883.883,0,0,0-1.538-.867.8.8,0,0,0-.112.419.6.6,0,0,0,.029.223.707.707,0,0,1-1.342,0,.89.89,0,0,0,.951-1.006.837.837,0,0,0-.671-.951.872.872,0,0,0-.56-.643.8.8,0,0,0,.28-.616,1.17,1.17,0,0,0-.112-.419l.027-.029Zm-5.984.727a7.623,7.623,0,0,1,4.67-.7v.112a.741.741,0,0,0,.168,1.006.826.826,0,0,0-.56.643.868.868,0,0,0-.671.951.917.917,0,0,0,.95,1.007.67.67,0,0,1-.867.447.605.605,0,0,1-.447-.447.629.629,0,0,0,.027-.224.9.9,0,0,0-.895-.895.884.884,0,0,0-.895.895.791.791,0,0,0,.112.419.693.693,0,0,1-1.286.335.9.9,0,0,0,.7-1.2.863.863,0,0,0-.894-.755.883.883,0,0,0-.392-.391,5.493,5.493,0,0,1,.28-1.2" transform="translate(-7.551 -5.765)" fill="#c62c46"/>
      <path id="Path_6692" data-name="Path 6692" d="M38.993,25.059,42.46,21.48A14.9,14.9,0,0,1,49.983,34.4a14.686,14.686,0,0,1-3.412,9.451l-1.622-1.622a11.613,11.613,0,0,0,3.02-7.97,12.926,12.926,0,0,0-5.145-10.206l-2.1,2.125a10.236,10.236,0,0,1,2.629,2.74l-1.594,1.37a7.647,7.647,0,0,0-2.489-2.6l-4.139,4.39L30.8,27.658A7.941,7.941,0,0,0,27.193,34.2c-.084,3.663,2.293,6.235,5.648,7.354v-7.38h5.09v1.51H34.8V37.67h3.076V39.4H34.8v2.489a8.385,8.385,0,0,0,6.207-2.853l1.538,1.538a10.2,10.2,0,0,1-7.718,3.439v2.265H32.841V43.766a10,10,0,0,1-7.718-9.787,9.819,9.819,0,0,1,4.25-7.774l-2.125-2.181a13.121,13.121,0,0,0-5.173,10.207,11.764,11.764,0,0,0,3.048,8.054L23.7,43.738a14.126,14.126,0,0,1-3.5-9.34,14.92,14.92,0,0,1,7.494-12.89l3.523,3.663a10.771,10.771,0,0,1,3.888-.727,10.482,10.482,0,0,1,3.719.726Zm-6.236,1.678,2.349,2.4,2.209-2.349a10.92,10.92,0,0,0-2.321-.392,12.062,12.062,0,0,0-2.238.336m20.5,7.718a18.12,18.12,0,1,1-18.12-18.148,18.134,18.134,0,0,1,18.12,18.148m-34.45,0A16.344,16.344,0,1,0,35.134,18.1,16.337,16.337,0,0,0,18.8,34.454M36.728,14.377l-1.566-.587-1.566.587,1.566.587ZM40,15.523l1.51-.168-1.23-.867-1.511.168Zm-2.349-.5a.5.5,0,1,0-.5-.5h0a.5.5,0,0,0,.5.5M27.78,16.306a.5.5,0,1,0-.5-.5h0a.5.5,0,0,0,.5.5m4.837-1.286a.5.5,0,1,0-.5-.5h0a.521.521,0,0,0,.5.5m9.9,1.286a.5.5,0,1,0-.5-.5h0a.5.5,0,0,0,.5.5m-12.192-.783,1.231-.867-1.51-.168-1.23.867Zm-3.244.5-.587-.224-.056-.084a.168.168,0,0,1-.112.028c-.055,0-.112-.028-.112-.084a.145.145,0,0,1,.056-.112,20.976,20.976,0,0,1,17.756,0,.106.106,0,1,1-.083.2c-.029,0-.084-.028-.112-.028L43.8,15.8l-.587.224.168.671-.055.111c.307.14.083.363-.029.308a19.321,19.321,0,0,0-16.3,0,.117.117,0,0,1-.168-.084.135.135,0,0,1,.056-.168c.028-.028.056-.028.084-.056l-.056-.111ZM44.166,15.3a21.144,21.144,0,0,0-18.008,0,.369.369,0,0,1-.475-.168h0a.485.485,0,0,1,.084-.475,1.435,1.435,0,0,1-1.454-.2c-.895.616-1.93-.644-1.258-1.2a.738.738,0,0,1,.139-1.175.832.832,0,0,1-.139-.419c0-.475.335-.643.755-.727a.838.838,0,0,1-.419-.671c0-.475.364-.671.783-.727a.871.871,0,0,1-.2-.5.693.693,0,0,1,.7-.7h0a.858.858,0,0,1,.363.084.929.929,0,0,1-.14-.447.693.693,0,0,1,.7-.7h0a.936.936,0,0,1,.475.14.952.952,0,0,1-.028-.28.693.693,0,0,1,.7-.7h0a.807.807,0,0,1,.5.2c.084-.363.28-.671.727-.671a.708.708,0,0,1,.644.419.85.85,0,0,1,.587-.336,1.023,1.023,0,0,1,.308.055,1.026,1.026,0,0,1-.112-.391.692.692,0,0,1,.7-.7h0a.882.882,0,0,1,.532.2,1.067,1.067,0,0,1-.027-.307.692.692,0,0,1,.7-.7h0a.761.761,0,0,1,.531.224c.084-.363.279-.671.727-.671a.784.784,0,0,1,.587.28.755.755,0,0,1,.7-.531.994.994,0,0,1,.28.056,1.337,1.337,0,0,1,.726-.448V2.269h-.587V1.85h.587V1.318h.475v.531h.587V2.3H35.33v.754a1.338,1.338,0,0,1,.727.448,1,1,0,0,1,.28-.056.776.776,0,0,1,.7.531.786.786,0,0,1,.587-.279c.448,0,.643.307.726.671a.766.766,0,0,1,.532-.224.692.692,0,0,1,.7.7c0,.112-.029.2-.029.308a.885.885,0,0,1,.532-.2.692.692,0,0,1,.7.7,1.166,1.166,0,0,1-.111.419,1.178,1.178,0,0,1,.307-.056.691.691,0,0,1,.587.308.717.717,0,0,1,.671-.419c.448,0,.644.308.728.671a.8.8,0,0,1,.5-.2.692.692,0,0,1,.7.7.964.964,0,0,1-.027.279.939.939,0,0,1,.475-.14.693.693,0,0,1,.7.7.839.839,0,0,1-.141.447c.112-.028.224-.056.364-.084a.693.693,0,0,1,.7.7.8.8,0,0,1-.2.5.736.736,0,0,1,.782.727.779.779,0,0,1-.42.671c.392.084.727.251.727.727a.743.743,0,0,1-.14.419.7.7,0,0,1,.14,1.147c.42.335.2.866-.14,1.146a.821.821,0,0,1-1.118.056,1.436,1.436,0,0,1-1.454.2l.083.167a.359.359,0,0,1-.168.475c0,.14-.109.14-.165.083m-18.9-2.236c.224.615-.028.838-.559,1.119a1.006,1.006,0,0,0,.895,0,.893.893,0,0,0,.448-.867.757.757,0,0,1-.168-.336.681.681,0,0,1,.616-.782.713.713,0,0,1,.755.447.349.349,0,0,1,.029.168.871.871,0,0,0,1.566-.671c-.615.139-1.007.084-1.174-.56a.678.678,0,0,1,.363-.923c.027,0,.027-.028.055-.028a.787.787,0,0,1,.112-.56.725.725,0,0,1-.587-.726c0-.475.335-.643.755-.727a.843.843,0,0,1-.42-.671c0-.028,0-.056-.168-.112-2.237,1.09-2.852,2.209-3.048,4.642a.763.763,0,0,1,.53.589m9.284-7.69V5.2a4.727,4.727,0,0,0-5.173,4.475.8.8,0,0,1,.475.475.7.7,0,0,1,.839.615c.168.643-.139.895-.755,1.062A.848.848,0,0,0,31,12.391a.865.865,0,0,0,.644-.838.614.614,0,0,1-.112-.363.714.714,0,1,1,1.426-.084v.084a.612.612,0,0,1-.028.223.865.865,0,0,0,.839.644.881.881,0,0,0,.867-.811c-.644,0-1.006-.167-1.006-.839a.7.7,0,0,1,.643-.811c.112-.587.419-.615.895-.7.5.084.783.112.895.7a.716.716,0,0,1,.671.755v.056c0,.671-.363.839-1.006.839a.881.881,0,0,0,.867.811.865.865,0,0,0,.839-.644.615.615,0,0,1-.028-.223.727.727,0,1,1,1.453,0h0a.566.566,0,0,1-.111.363.9.9,0,0,0,.643.838.879.879,0,0,0,1.034-.559c-.615-.167-.922-.419-.755-1.062a.7.7,0,0,1,.84-.615.8.8,0,0,1,.475-.475A4.71,4.71,0,0,0,35.806,5.2c0,.056.029.112.029.168a.564.564,0,0,1-.112.363v.7a.588.588,0,0,1,0,.727l.029.7a.8.8,0,0,1,.112.336c0,.419-.307.531-.616.671-.307-.14-.615-.252-.615-.671a.784.784,0,0,1,.112-.363v-.7a.588.588,0,0,1,0-.727v-.7a.321.321,0,0,1-.2-.335M44.7,14.153a1,1,0,0,0,.894,0c-.531-.252-.811-.5-.559-1.119a.806.806,0,0,1,.531-.587c-.2-2.4-.867-3.551-3.047-4.642l-.168.056v.084a.781.781,0,0,1-.419.671c.391.084.755.251.755.727a.7.7,0,0,1-.615.7.786.786,0,0,1,.111.559.721.721,0,0,1,.448.895c0,.028,0,.028-.027.056-.168.644-.56.7-1.175.56a.87.87,0,0,0,1.566.671.351.351,0,0,1,.029-.168.719.719,0,0,1,1.4.336.671.671,0,0,1-.168.307.906.906,0,0,0,.447.894M33.9,4.534a.392.392,0,1,0-.392-.392.383.383,0,0,0,.392.392h0m1.23,1.23a.391.391,0,1,0-.391-.391h0a.4.4,0,0,0,.391.391m0,1.426a.392.392,0,1,0-.391-.392h0a.42.42,0,0,0,.391.392h0m0,1.426a.392.392,0,1,0-.391-.392.421.421,0,0,0,.391.392M32.618,4.757a.392.392,0,1,0-.392-.392.4.4,0,0,0,.392.392h0m-1.23.476A.392.392,0,1,0,31,4.841a.383.383,0,0,0,.392.392h0m-1.2.782a.392.392,0,1,0-.392-.392.383.383,0,0,0,.392.392h0m-.922,1.063a.392.392,0,1,0-.392-.392.382.382,0,0,0,.392.392M28,6.994a.392.392,0,1,0-.392-.392A.383.383,0,0,0,28,6.994h0m-1.231.476a.392.392,0,1,0-.392-.392.368.368,0,0,0,.392.392m-1.146.839a.392.392,0,1,0-.392-.392.383.383,0,0,0,.392.392M24.676,9.4a.392.392,0,1,0-.392-.392.383.383,0,0,0,.392.392h0m-.587,1.231a.392.392,0,1,0-.392-.392.4.4,0,0,0,.392.392m-.308,1.4a.392.392,0,1,0-.392-.392.383.383,0,0,0,.392.392m4.865-3.691a.392.392,0,1,0-.392-.392.383.383,0,0,0,.392.392h0m-.336,1.4a.392.392,0,1,0-.391-.392.383.383,0,0,0,.391.392h0m6.851,1.2a.7.7,0,1,0-.7-.7.675.675,0,0,0,.7.7h0m-5.873.755a.709.709,0,1,0-.867-.5.749.749,0,0,0,.867.5m-5.034,2.377a.7.7,0,1,0-.951-.28h0a.677.677,0,0,0,.951.28M36.393,3.751a.392.392,0,1,0,.391.392h0a.383.383,0,0,0-.391-.392m1.286.224a.392.392,0,1,0,.392.392h0a.383.383,0,0,0-.392-.392m1.23.475a.392.392,0,1,0,.391.392.366.366,0,0,0-.391-.392h0m1.2.783a.391.391,0,1,0,.392.391h0a.4.4,0,0,0-.392-.391M41.035,6.3a.392.392,0,1,0,.391.392.4.4,0,0,0-.391-.392m1.258-.112a.392.392,0,1,0,.392.392.4.4,0,0,0-.392-.392h0m1.231.5a.392.392,0,1,0,.391.392h0a.382.382,0,0,0-.391-.392m1.146.839a.392.392,0,1,0,.391.392h0a.381.381,0,0,0-.391-.392m.951,1.091a.392.392,0,1,0,.392.392.4.4,0,0,0-.392-.392h0m.587,1.23a.392.392,0,1,0,.392.392h0a.4.4,0,0,0-.392-.392m.308,1.4a.392.392,0,1,0,.391.392h0a.383.383,0,0,0-.391-.392M41.65,7.526a.392.392,0,1,0,.392.392.382.382,0,0,0-.392-.392h0m.335,1.4a.392.392,0,1,0,.392.392.4.4,0,0,0-.392-.392h0m-.642,1.4a.709.709,0,1,0,.5.867.7.7,0,0,0-.5-.867h0m5.369,2.517a.7.7,0,0,0-.671,1.23.7.7,0,1,0,.671-1.23h0m-8.641-.755a.354.354,0,0,1-.168-.028,1.384,1.384,0,0,1-.532.448c.364.028.728.084,1.091.14a1.391,1.391,0,0,1-.363-.531Zm-5.844,0a1.555,1.555,0,0,1-.392.56c.363-.056.727-.112,1.091-.14a1.554,1.554,0,0,1-.5-.448c-.083,0-.139.028-.2.028m-2.1.895a1.619,1.619,0,0,1-.643-.5,1.505,1.505,0,0,1-.308.755,6.873,6.873,0,0,1,.951-.252m-3.607,1.175c.336-.14.671-.279,1.006-.392a1.959,1.959,0,0,1-.5-.224.991.991,0,0,1-.251.112h-.056a1.255,1.255,0,0,1-.2.5m8.641-2.433a1.524,1.524,0,0,1-.5.671h.978a1.292,1.292,0,0,1-.475-.671m8.081,1.817a1.379,1.379,0,0,1-.5.224c.335.112.671.252,1.006.392a1.876,1.876,0,0,1-.2-.5h-.056a1,1,0,0,1-.251-.112m-2.153-.308a1.5,1.5,0,0,1-.308-.755,1.537,1.537,0,0,1-.615.5,5.8,5.8,0,0,1,.923.252" transform="translate(-0.499 -0.15)" fill="#ecc00f"/>
      <circle id="Ellipse_22" data-name="Ellipse 22" cx="0.392" cy="0.392" r="0.392" transform="translate(36.788 3.824)" fill="none"/>
      <path id="Path_6693" data-name="Path 6693" d="M35.243,29.109l-.364-.139-.14-.056-.139.531.419.224.112-.112Z" transform="translate(-8.801 -13.177)" fill="none"/>
      <path id="Path_6694" data-name="Path 6694" d="M53.372,6.708a.392.392,0,1,0-.392-.392h0A.382.382,0,0,0,53.372,6.708Z" transform="translate(-17.478 -2.325)" fill="none"/>
      <path id="Path_6695" data-name="Path 6695" d="M66.91,29.184l.111.448.029.168.5-.28-.112-.448Z" transform="translate(-24.054 -13.252)" fill="none"/>
      <circle id="Ellipse_23" data-name="Ellipse 23" cx="0.392" cy="0.392" r="0.392" transform="translate(39.248 5.082)" fill="none"/>
      <circle id="Ellipse_24" data-name="Ellipse 24" cx="0.392" cy="0.392" r="0.392" transform="translate(31.726 13.975)" fill="none"/>
      <circle id="Ellipse_25" data-name="Ellipse 25" cx="0.392" cy="0.392" r="0.392" transform="translate(40.144 6.145)" fill="none"/>
      <circle id="Ellipse_26" data-name="Ellipse 26" cx="0.392" cy="0.392" r="0.392" transform="translate(27.728 7.403)" fill="none"/>
      <path id="Path_6696" data-name="Path 6696" d="M50.988,9.039a.391.391,0,1,0-.391-.391h0A.4.4,0,0,0,50.988,9.039Z" transform="translate(-16.353 -3.426)" fill="none"/>
      <circle id="Ellipse_27" data-name="Ellipse 27" cx="0.392" cy="0.392" r="0.392" transform="translate(26.889 15.289)" fill="none"/>
      <circle id="Ellipse_28" data-name="Ellipse 28" cx="0.392" cy="0.392" r="0.392" transform="translate(40.786 7.403)" fill="none"/>
      <path id="Path_6697" data-name="Path 6697" d="M46.019,11.2v-.363a.727.727,0,0,1-.112-.419A.787.787,0,0,1,46.019,10V9.407a.727.727,0,0,1-.112-.419,4.456,4.456,0,0,0-4.474,2.88A7.63,7.63,0,0,1,46.019,11.2Z" transform="translate(-12.027 -3.766)" fill="none"/>
      <path id="Path_6698" data-name="Path 6698" d="M52.873,15.095a.869.869,0,0,1,.672.951.9.9,0,0,1-.951,1.006.67.67,0,0,0,.867.448.607.607,0,0,0,.448-.448.615.615,0,0,1-.028-.223.9.9,0,0,1,.895-.895.883.883,0,0,1,.894.895.788.788,0,0,1-.112.419.711.711,0,0,0,.727.671.671.671,0,0,0,.559-.336.871.871,0,0,1-.671-1.2.864.864,0,0,1,.895-.755.881.881,0,0,1,.39-.392,5.465,5.465,0,0,0-.279-1.175,7.627,7.627,0,0,0-4.671-.7v.112a.774.774,0,0,1-.167,1.006A.807.807,0,0,1,52.873,15.095Z" transform="translate(-17.176 -5.789)" fill="none"/>
      <path id="Path_6699" data-name="Path 6699" d="M41.16,15.55a.863.863,0,0,1,.895.755.886.886,0,0,1-.671,1.2.687.687,0,0,0,.951.224.741.741,0,0,0,.336-.56.882.882,0,0,1,1.537-.867.783.783,0,0,1,.112.419.616.616,0,0,1-.028.224.684.684,0,0,0,.895.419.878.878,0,0,0,.448-.448.89.89,0,0,1-.951-1.006.853.853,0,0,1,.671-.951.872.872,0,0,1,.56-.644.781.781,0,0,1-.168-1.006V13.2a7.612,7.612,0,0,0-4.67.7,5.961,5.961,0,0,0-.28,1.174A2.705,2.705,0,0,1,41.16,15.55Z" transform="translate(-11.726 -5.714)" fill="none"/>
      <circle id="Ellipse_29" data-name="Ellipse 29" cx="0.392" cy="0.392" r="0.392" transform="translate(29.266 5.082)" fill="none"/>
      <circle id="Ellipse_30" data-name="Ellipse 30" cx="0.392" cy="0.392" r="0.392" transform="translate(28.371 6.145)" fill="none"/>
      <path id="Path_6700" data-name="Path 6700" d="M57.247,11.868a4.455,4.455,0,0,0-4.473-2.88.792.792,0,0,1-.112.419v.587a.73.73,0,0,1,.112.419.793.793,0,0,1-.112.419V11.2A7.672,7.672,0,0,1,57.247,11.868Z" transform="translate(-17.327 -3.766)" fill="none"/>
      <path id="Path_6701" data-name="Path 6701" d="M50.6,14a.391.391,0,1,0,.391-.392A.421.421,0,0,0,50.6,14Z" transform="translate(-16.352 -5.951)" fill="none"/>
      <path id="Path_6702" data-name="Path 6702" d="M50.988,10.958a.391.391,0,1,0,.392.391.366.366,0,0,0-.392-.391Z" transform="translate(-16.353 -4.701)" fill="none"/>
      <path id="Path_6703" data-name="Path 6703" d="M48.657,6.708a.392.392,0,1,0-.392-.392.383.383,0,0,0,.392.392Z" transform="translate(-15.252 -2.325)" fill="none"/>
      <circle id="Ellipse_31" data-name="Ellipse 31" cx="0.392" cy="0.392" r="0.392" transform="translate(30.468 4.3)" fill="none"/>
      <circle id="Ellipse_32" data-name="Ellipse 32" cx="0.392" cy="0.392" r="0.392" transform="translate(31.726 3.824)" fill="none"/>
      <circle id="Ellipse_33" data-name="Ellipse 33" cx="0.392" cy="0.392" r="0.392" transform="translate(38.046 4.3)" fill="none"/>
      <path id="Path_6704" data-name="Path 6704" d="M61.438,18.861a.709.709,0,1,0,.867-.5.75.75,0,0,0-.867.5Z" transform="translate(-21.462 -8.186)" fill="none"/>
      <path id="Path_6705" data-name="Path 6705" d="M60.87,22.9c.308.084.644.167.951.251a1.5,1.5,0,0,1-.307-.755A1.412,1.412,0,0,1,60.87,22.9Z" transform="translate(-21.203 -10.102)" fill="none"/>
      <path id="Path_6706" data-name="Path 6706" d="M35.275,24.576a4.2,4.2,0,0,1-.252.5c.336-.14.671-.279,1.007-.392a1.959,1.959,0,0,1-.5-.224A.681.681,0,0,1,35.275,24.576Z" transform="translate(-9.001 -11.077)" fill="none"/>
      <path id="Path_6707" data-name="Path 6707" d="M66.248,24.411a1.379,1.379,0,0,1-.5.224c.335.112.671.251,1.006.392a1.355,1.355,0,0,1-.2-.5A.521.521,0,0,1,66.248,24.411Z" transform="translate(-23.503 -11.052)" fill="none"/>
      <path id="Path_6708" data-name="Path 6708" d="M40.364,22.4a1.505,1.505,0,0,1-.308.755c.308-.084.616-.168.951-.251A1.4,1.4,0,0,1,40.364,22.4Z" transform="translate(-11.377 -10.102)" fill="none"/>
      <circle id="Ellipse_34" data-name="Ellipse 34" cx="0.392" cy="0.392" r="0.392" transform="translate(41.094 8.801)" fill="none"/>
      <path id="Path_6709" data-name="Path 6709" d="M52.244,26.515a20.976,20.976,0,0,0-17.756,0,.1.1,0,0,0-.056.14.145.145,0,0,0,.112.056c.027,0,.084-.028.111-.028l.616.308-.168.671.084.112c-.029.028-.056.028-.084.056a.16.16,0,0,0-.055.2.134.134,0,0,0,.168.056,19.321,19.321,0,0,1,16.3,0c.14.056.336-.168.029-.308l.055-.111-.168-.671.587-.224c.029-.055.111-.055.168-.055s.112-.028.112-.084A.149.149,0,0,0,52.244,26.515ZM36,27.27a.5.5,0,1,1,.5-.5h0A.5.5,0,0,1,36,27.27Zm2.517-.783L37,26.319l1.258-.867,1.51.168Zm2.321-.5a.5.5,0,1,1,.5-.5h0a.519.519,0,0,1-.5.5Zm2.517-.056-1.566-.587,1.566-.587,1.566.587Zm2.517.056a.5.5,0,1,1,.5-.5h0a.519.519,0,0,1-.5.5Zm2.321.5-1.23-.867,1.509-.168,1.259.867Zm2.518.783a.5.5,0,1,1,.5-.5h0a.478.478,0,0,1-.476.5Z" transform="translate(-8.716 -11.114)" fill="none"/>
      <path id="Path_6710" data-name="Path 6710" d="M45.7,21.657c-.055,0-.111.028-.168.028a1.568,1.568,0,0,1-.392.56c.363-.056.727-.084,1.091-.14A1.2,1.2,0,0,1,45.7,21.657Z" transform="translate(-13.777 -9.752)" fill="none"/>
      <path id="Path_6711" data-name="Path 6711" d="M50.887,21.074a1.7,1.7,0,0,1-.5.671h.978A2.264,2.264,0,0,1,50.887,21.074Z" transform="translate(-16.252 -9.476)" fill="none"/>
      <path id="Path_6712" data-name="Path 6712" d="M51.464,17.589a.7.7,0,1,0-.7.7.692.692,0,0,0,.7-.7Z" transform="translate(-16.102 -7.501)" fill="none"/>
      <path id="Path_6713" data-name="Path 6713" d="M39.468,19.719a.709.709,0,1,0-.867-.5.724.724,0,0,0,.867.5Z" transform="translate(-10.677 -8.177)" fill="none"/>
      <path id="Path_6714" data-name="Path 6714" d="M56.3,21.685a.354.354,0,0,1-.168-.028,1.538,1.538,0,0,1-.5.448c.363.028.726.084,1.09.14a1.4,1.4,0,0,1-.364-.531Z" transform="translate(-18.727 -9.752)" fill="none"/>
      <path id="Path_6715" data-name="Path 6715" d="M49.007,25.654l1.23.475,1.259-.475-1.259-.448Z" transform="translate(-15.602 -11.427)" fill="none"/>
      <circle id="Ellipse_35" data-name="Ellipse 35" cx="0.392" cy="0.392" r="0.392" transform="translate(42.632 6.536)" fill="none"/>
      <circle id="Ellipse_36" data-name="Ellipse 36" cx="0.392" cy="0.392" r="0.392" transform="translate(41.401 6.061)" fill="none"/>
      <path id="Path_6716" data-name="Path 6716" d="M65.534,15.266c.42.168.895.279,1.315.447a3.77,3.77,0,0,1,.727.419,4.909,4.909,0,0,0-2.348-2.209.888.888,0,0,1-.224.56A.9.9,0,0,1,65.534,15.266Z" transform="translate(-23.154 -6.101)" fill="none"/>
      <circle id="Ellipse_37" data-name="Ellipse 37" cx="0.392" cy="0.392" r="0.392" transform="translate(43.778 7.375)" fill="none"/>
      <path id="Path_6717" data-name="Path 6717" d="M64.881,16.837a.91.91,0,0,1-.5.643.78.78,0,0,1,.055.363.86.86,0,0,1,.42,1.09.9.9,0,0,1-1.175.727.7.7,0,0,0,1.231.419.356.356,0,0,1,.028-.168.889.889,0,1,1,1.734.392v.029a.645.645,0,0,1-.168.335.691.691,0,0,0,.671.727h.056a.833.833,0,0,1-.28-1.119,1.11,1.11,0,0,1,.531-.644,6.433,6.433,0,0,0-.391-1.93,2.714,2.714,0,0,0-.867-.5C65.747,17.061,65.328,16.921,64.881,16.837Z" transform="translate(-22.528 -7.476)" fill="none"/>
      <path id="Path_6718" data-name="Path 6718" d="M71.959,18.256a.392.392,0,1,0-.392-.392h0A.383.383,0,0,0,71.959,18.256Z" transform="translate(-26.251 -7.776)" fill="none"/>
      <circle id="Ellipse_38" data-name="Ellipse 38" cx="0.392" cy="0.392" r="0.392" transform="translate(45.625 11.095)" fill="none"/>
      <circle id="Ellipse_39" data-name="Ellipse 39" cx="0.392" cy="0.392" r="0.392" transform="translate(36.76 13.975)" fill="none"/>
      <circle id="Ellipse_40" data-name="Ellipse 40" cx="0.392" cy="0.392" r="0.392" transform="translate(27.42 8.801)" fill="none"/>
      <circle id="Ellipse_41" data-name="Ellipse 41" cx="0.7" cy="0.7" r="0.7" transform="translate(45.165 12.605)" fill="none"/>
      <circle id="Ellipse_42" data-name="Ellipse 42" cx="0.392" cy="0.392" r="0.392" transform="translate(44.729 8.465)" fill="none"/>
      <circle id="Ellipse_43" data-name="Ellipse 43" cx="0.392" cy="0.392" r="0.392" transform="translate(41.626 15.289)" fill="none"/>
      <path id="Path_6719" data-name="Path 6719" d="M60.784,45.758l-1.342,1.37a10.463,10.463,0,0,1,2.517,2.908L59.5,52.162a6.961,6.961,0,0,0-2.265-2.742L54.94,51.853l8.835,9.116a10.264,10.264,0,0,0,1.51-5.7A12.345,12.345,0,0,0,60.784,45.758Z" transform="translate(-18.403 -21.129)" fill="none"/>
      <circle id="Ellipse_44" data-name="Ellipse 44" cx="0.392" cy="0.392" r="0.392" transform="translate(23.785 8.465)" fill="none"/>
      <path id="Path_6720" data-name="Path 6720" d="M45.363,39.507,41.9,43.086l-.112.111a10.026,10.026,0,0,0-3.719-.726,10.892,10.892,0,0,0-3.887.726l-3.523-3.663a14.942,14.942,0,0,0-7.494,12.891,14.121,14.121,0,0,0,3.5,9.34l1.426-1.455a11.636,11.636,0,0,1-3.048-8.054,13.062,13.062,0,0,1,5.2-10.206l2.125,2.181a9.865,9.865,0,0,0-4.251,7.774,9.97,9.97,0,0,0,7.718,9.787V64.31h1.985V62.044A10.167,10.167,0,0,0,45.533,58.6l-1.538-1.538a8.391,8.391,0,0,1-6.208,2.852V57.43h3.076V55.7H37.786V53.711h3.132V52.2h-5.09v7.382c-3.355-1.118-5.732-3.691-5.648-7.355a7.9,7.9,0,0,1,3.607-6.544l4.307,4.447,4.082-4.39a7.638,7.638,0,0,1,2.517,2.572l1.594-1.37a10.22,10.22,0,0,0-2.629-2.74l2.1-2.125A12.926,12.926,0,0,1,50.9,52.285a11.434,11.434,0,0,1-3.02,7.97L49.5,61.876a14.636,14.636,0,0,0,3.411-9.451A14.917,14.917,0,0,0,45.363,39.507ZM38.036,47.2l-2.349-2.4a8.653,8.653,0,0,1,2.265-.308,9.365,9.365,0,0,1,2.32.392Z" transform="translate(-3.401 -18.178)" fill="none"/>
      <path id="Path_6721" data-name="Path 6721" d="M32.979,13.859a.392.392,0,1,0-.392-.392.4.4,0,0,0,.392.392Z" transform="translate(-7.851 -5.701)" fill="none"/>
      <path id="Path_6722" data-name="Path 6722" d="M29.8,24.291a.7.7,0,1,0-.951-.28A.677.677,0,0,0,29.8,24.291Z" transform="translate(-6.045 -10.372)" fill="none"/>
      <path id="Path_6723" data-name="Path 6723" d="M30.456,17.864a.392.392,0,1,0-.392.392h0A.4.4,0,0,0,30.456,17.864Z" transform="translate(-6.475 -7.776)" fill="none"/>
      <path id="Path_6724" data-name="Path 6724" d="M29.483,20.9a.392.392,0,1,0-.392-.392.383.383,0,0,0,.392.392Z" transform="translate(-6.201 -9.026)" fill="none"/>
      <path id="Path_6725" data-name="Path 6725" d="M48.9,50.027l1.287,1.315,1.2-1.258a7,7,0,0,0-1.314-.139A7.614,7.614,0,0,0,48.9,50.027Z" transform="translate(-15.552 -23.105)" fill="none"/>
      <path id="Path_6726" data-name="Path 6726" d="M35.11,29.708A18.134,18.134,0,1,0,53.23,47.856,18.14,18.14,0,0,0,35.11,29.708Zm0,34.507a16.344,16.344,0,1,1,16.358-16.33A16.338,16.338,0,0,1,35.11,64.215Z" transform="translate(-0.475 -13.552)" fill="none"/>
      <path id="Path_6727" data-name="Path 6727" d="M29.544,14.433a1.436,1.436,0,0,0,1.454.2.488.488,0,0,0-.084.475.377.377,0,0,0,.447.2h0a21.145,21.145,0,0,1,18.009,0,.384.384,0,0,0,.475-.224.462.462,0,0,0,0-.28l-.083-.168a1.436,1.436,0,0,0,1.454-.2.814.814,0,0,0,1.09-.084c.336-.28.56-.811.14-1.147a.755.755,0,0,0-.14-1.175.749.749,0,0,0,.14-.419c0-.475-.336-.643-.727-.727a.838.838,0,0,0,.419-.671c0-.475-.363-.671-.782-.727a.869.869,0,0,0,.195-.5.692.692,0,0,0-.7-.7,1.591,1.591,0,0,0-.363.056.939.939,0,0,0,.139-.448.691.691,0,0,0-.7-.7.941.941,0,0,0-.475.14.95.95,0,0,0,.028-.279.692.692,0,0,0-.7-.7.809.809,0,0,0-.5.2c-.083-.363-.279-.671-.727-.671a.779.779,0,0,0-.671.419.73.73,0,0,0-.588-.308,1,1,0,0,0-.307.056A1.029,1.029,0,0,0,46.1,5.65a.693.693,0,0,0-.7-.7.883.883,0,0,0-.531.2A1.091,1.091,0,0,0,44.9,4.84a.692.692,0,0,0-.7-.7.762.762,0,0,0-.531.224c-.084-.363-.279-.671-.727-.671A.728.728,0,0,0,42.353,4a.755.755,0,0,0-.7-.531,1,1,0,0,0-.28.056,1.331,1.331,0,0,0-.726-.448V2.3h.587V1.85h-.587V1.318h-.475v.531h-.587V2.3h.587v.754a1.336,1.336,0,0,0-.727.448,1.01,1.01,0,0,0-.279-.056.776.776,0,0,0-.7.531.787.787,0,0,0-.587-.279c-.448,0-.644.307-.727.671a.765.765,0,0,0-.532-.224.693.693,0,0,0-.7.7,1.129,1.129,0,0,0,.029.308.883.883,0,0,0-.532-.2.692.692,0,0,0-.7.7h0a1.166,1.166,0,0,0,.111.419,1.182,1.182,0,0,0-.308-.056.744.744,0,0,0-.615.308.706.706,0,0,0-.643-.419.753.753,0,0,0-.727.671.8.8,0,0,0-.5-.2.693.693,0,0,0-.7.7h0c0,.084.028.2.028.279a.943.943,0,0,0-.475-.14.693.693,0,0,0-.7.7h0a.842.842,0,0,0,.14.447c-.112-.028-.252-.056-.364-.084a.693.693,0,0,0-.7.7h0a.8.8,0,0,0,.2.5.736.736,0,0,0-.783.727.779.779,0,0,0,.419.671c-.392.084-.755.251-.755.727a.751.751,0,0,0,.14.419.723.723,0,0,0-.14,1.174C27.615,13.789,28.65,15.048,29.544,14.433Zm1.986,0-.112-.14a1.737,1.737,0,0,0,.392-.783.659.659,0,0,0,.447-.2,1.274,1.274,0,0,0,.811.308l.029.168c-.532.2-1.063.419-1.566.643Zm4.166-1.37c-.5.112-1.034.251-1.538.391l-.084-.14a1.411,1.411,0,0,0,.475-1.174l.168-.056a1.317,1.317,0,0,0,.979.811v.168ZM34.159,10.21a.807.807,0,0,1,.391,1.566.788.788,0,0,1-.979-.587.78.78,0,0,1,.588-.979Zm-.616-.363a.5.5,0,1,1,.5-.5.521.521,0,0,1-.5.5Zm4.949,2.8a16.715,16.715,0,0,0-1.706.224l-.056-.168a1.62,1.62,0,0,0,.615-.811h.112a.809.809,0,0,0,.252-.056,1.621,1.621,0,0,0,.811.616Zm2.685-.083H39.555l-.028-.168a1.279,1.279,0,0,0,.755-1.006h.167a1.383,1.383,0,0,0,.755,1.035Zm-1.622-2.321a.811.811,0,1,1,.811.811h0a.811.811,0,0,1-.811-.811Zm4.419,2.6c-.56-.084-1.118-.168-1.705-.224v-.139a1.622,1.622,0,0,0,.81-.616.805.805,0,0,0,.252.056h.112a1.622,1.622,0,0,0,.615.811Zm2.6.615c-.5-.14-1.007-.279-1.538-.391v-.168a1.317,1.317,0,0,0,.979-.811l.168.056a1.339,1.339,0,0,0,.475,1.174Zm.615-2.237A.824.824,0,1,1,46.6,10.21a.816.816,0,0,1,.588,1.006Zm-.476-1.9a.5.5,0,1,1,.5.5h0A.484.484,0,0,1,46.714,9.315Zm2.517,5.118a15.5,15.5,0,0,0-1.594-.616l.029-.168a1.565,1.565,0,0,0,.782-.279c.14.027.223.084.336.112a1.232,1.232,0,0,1,.14.027,1.307,1.307,0,0,0,.391.782Zm3.076-.588a.82.82,0,0,1-1.426-.811.791.791,0,0,1,1.091-.308.827.827,0,0,1,.364,1.09c0,.029,0,.029-.028.029Zm-.559-2.712a.5.5,0,1,1-.5.5h0a.5.5,0,0,1,.5-.5Zm-.336-1.4a.5.5,0,1,1-.5.5h0a.52.52,0,0,1,.5-.5Zm-.559-1.259a.5.5,0,1,1-.5.5h0A.521.521,0,0,1,50.853,8.476ZM49.9,7.386a.5.5,0,1,1-.5.5h0a.52.52,0,0,1,.5-.5Zm-1.146-.838a.5.5,0,1,1-.5.5h0a.54.54,0,0,1,.5-.5Zm2.04,5.872a.759.759,0,0,0-.531.587c-.224.616.028.867.559,1.119a1,1,0,0,1-.894,0,.891.891,0,0,1-.447-.867.673.673,0,0,0,.168-.307.7.7,0,0,0-.531-.867.716.716,0,0,0-.867.531c0,.056-.029.112-.029.168a.871.871,0,0,1-1.566-.671c.616.14,1.007.084,1.175-.559a.678.678,0,0,0-.363-.923c-.028,0-.028-.029-.056-.029a.786.786,0,0,0-.111-.559.721.721,0,0,0,.615-.7c0-.475-.363-.643-.755-.727a.78.78,0,0,0,.419-.671l.168-.14C49.93,8.9,50.6,10.043,50.8,12.419ZM47.524,6.071a.5.5,0,1,1-.5.5h0A.521.521,0,0,1,47.524,6.071Zm-.642,1.343a.5.5,0,1,1-.5.5h0a.54.54,0,0,1,.5-.5Zm-.615-1.231a.5.5,0,1,1-.5.5h0a.5.5,0,0,1,.5-.5Zm-.923-1.063a.5.5,0,1,1-.5.5h0A.542.542,0,0,1,45.344,5.121Zm-1.2-.783a.5.5,0,1,1-.5.5h0a.542.542,0,0,1,.5-.5Zm-1.23-.476a.5.5,0,1,1-.5.5h0a.5.5,0,0,1,.5-.5Zm-1.286-.224a.5.5,0,1,1-.5.5h0a.5.5,0,0,1,.5-.5Zm-1.259,1.2a.5.5,0,1,1-.5.5h0A.541.541,0,0,1,40.366,4.841Zm0,2.46a.5.5,0,1,1,.5-.5h0a.484.484,0,0,1-.5.5Zm.5.9a.5.5,0,1,1-.5-.5h0A.52.52,0,0,1,40.87,8.2ZM39.136,3.638a.5.5,0,1,1-.5.5.5.5,0,0,1,.5-.5Zm-1.287.224a.5.5,0,1,1-.5.5h0a.5.5,0,0,1,.5-.5Zm-1.258.476a.5.5,0,1,1-.5.5h0a.5.5,0,0,1,.5-.5Zm3.188.867v.168a.791.791,0,0,0,.112.363v.7a.562.562,0,0,0-.112.364.791.791,0,0,0,.112.363v.7a.589.589,0,0,0-.14.363c0,.419.308.531.615.671.308-.14.615-.252.615-.671a.487.487,0,0,0-.111-.335v-.7a.562.562,0,0,0,.111-.363.8.8,0,0,0-.111-.363v-.7a.56.56,0,0,0,.111-.363.362.362,0,0,0-.027-.168,4.709,4.709,0,0,1,5.173,4.474.734.734,0,0,0-.476.475.7.7,0,0,0-.839.56V10.8c-.168.644.14.895.755,1.063a.882.882,0,0,1-1.035.559.9.9,0,0,1-.643-.839A.616.616,0,0,0,44,11.217a.714.714,0,0,0-1.425,0c0,.084.027.168.027.224a.869.869,0,0,1-1.706-.168c.644,0,1.007-.168,1.007-.839a.7.7,0,0,0-.644-.811c-.112-.587-.42-.644-.895-.7-.5.084-.782.112-.895.7a.7.7,0,0,0-.643.811c0,.671.363.839,1.006.839a.881.881,0,0,1-.867.811.864.864,0,0,1-.838-.644.627.627,0,0,0,.027-.224.727.727,0,0,0-1.454,0,.561.561,0,0,0,.112.363.872.872,0,0,1-1.706.251c.615-.168.923-.419.755-1.062a.7.7,0,0,0-.839-.615.8.8,0,0,0-.475-.475A4.81,4.81,0,0,1,39.779,5.2Zm-4.39-.084a.5.5,0,1,1-.5.5h0A.519.519,0,0,1,35.389,5.121Zm-.895,1.063a.5.5,0,1,1-.5.5h0a.483.483,0,0,1,.5-.5Zm-.112,1.734a.5.5,0,1,1-.5-.5h0A.592.592,0,0,1,34.382,7.917ZM33.236,6.071a.5.5,0,1,1-.5.5h0a.5.5,0,0,1,.5-.5Zm-.28,1.734c.2.056.2.084.2.14a.781.781,0,0,0,.419.671c-.392.084-.755.252-.755.727a.7.7,0,0,0,.615.7.787.787,0,0,0-.111.56.72.72,0,0,0-.448.894.1.1,0,0,0,.027.056c.168.643.56.7,1.175.559a.87.87,0,0,1-1.566.671.348.348,0,0,0-.029-.168.719.719,0,0,0-1.4.336.677.677,0,0,0,.168.308.846.846,0,0,1-.447.867,1,1,0,0,1-.894,0c.531-.251.783-.5.559-1.118a.757.757,0,0,0-.532-.587C30.16,10.015,30.775,8.924,32.956,7.805Zm-.978-1.23a.5.5,0,1,1-.5.5h0a.519.519,0,0,1,.5-.5Zm-1.119.839a.5.5,0,1,1-.5.5h0a.469.469,0,0,1,.5-.5c-.029-.029,0-.029,0,0Zm-.951,1.062a.5.5,0,1,1-.5.5h0A.541.541,0,0,1,29.908,8.476Zm-1.063,1.762a.5.5,0,1,1,.5.5h-.028A.538.538,0,0,1,28.846,10.238Zm.168.9a.5.5,0,1,1-.5.5h0a.5.5,0,0,1,.5-.5Zm-.251,1.621a.826.826,0,1,1,.782,1.454.784.784,0,0,1-1.091-.308.848.848,0,0,1,.308-1.146Z" transform="translate(-5.732 -0.15)" fill="none"/>
      <path id="Path_6728" data-name="Path 6728" d="M33.21,17.2a2.771,2.771,0,0,0-.867.531,6.42,6.42,0,0,0-.392,1.93,1.132,1.132,0,0,1,.531.616A.826.826,0,0,1,32.2,21.4a.7.7,0,0,0,.727-.727.893.893,0,1,1,1.37-1.146,1.486,1.486,0,0,1,.2.363c0,.055.028.112.028.168a.706.706,0,0,0,.979.112.681.681,0,0,0,.252-.5.879.879,0,0,1-1.175-.727A.861.861,0,0,1,35,17.845a1.629,1.629,0,0,1,.056-.363.88.88,0,0,1-.532-.643A8.9,8.9,0,0,0,33.21,17.2Z" transform="translate(-7.551 -7.477)" fill="none"/>
      <path id="Path_6729" data-name="Path 6729" d="M37.21,34.158a15.8,15.8,0,1,0,15.8,15.8A15.8,15.8,0,0,0,37.21,34.158ZM50.353,57.9a15,15,0,0,1-6.907,6.125l-1.426-1.454-2.684-2.74a8.61,8.61,0,0,1-1.874.224v2.292H34.385V59.716a10.539,10.539,0,0,1-7.717-10.208,9,9,0,0,1,.308-2.264L25.466,45.7a14.442,14.442,0,0,0-.755,4.055,11.058,11.058,0,0,0,3.272,8.025l-2.209,2.237a14.7,14.7,0,0,1-4-10.151,15.476,15.476,0,0,1,8.109-13.562l3.552,3.719a11.353,11.353,0,0,1,3.747-.644,10.657,10.657,0,0,1,3.607.644l3.636-3.747a15.43,15.43,0,0,1,8.165,13.59A14.989,14.989,0,0,1,50.353,57.9Z" transform="translate(-2.575 -15.653)" fill="none"/>
      <circle id="Ellipse_45" data-name="Ellipse 45" cx="0.392" cy="0.392" r="0.392" transform="translate(27.113 6.061)" fill="none"/>
      <path id="Path_6730" data-name="Path 6730" d="M41.912,70.606V69.1l-4.558-4.642A6.873,6.873,0,0,0,41.912,70.606Z" transform="translate(-10.101 -29.955)" fill="none"/>
      <circle id="Ellipse_46" data-name="Ellipse 46" cx="0.392" cy="0.392" r="0.392" transform="translate(25.882 6.536)" fill="none"/>
      <path id="Path_6731" data-name="Path 6731" d="M33.632,15.738a7.022,7.022,0,0,1,1.315-.363.849.849,0,0,1,.56-.867.763.763,0,0,1-.224-.532,4.825,4.825,0,0,0-2.377,2.181A3.125,3.125,0,0,1,33.632,15.738Z" transform="translate(-8.002 -6.126)" fill="none"/>
      <path id="Path_6732" data-name="Path 6732" d="M39.763,11.541a.5.5,0,1,0-.5-.5h0a.469.469,0,0,0,.5.5Zm0-.895a.392.392,0,1,1-.392.392.382.382,0,0,1,.392-.392Z" transform="translate(-10.999 -4.501)" fill="#2c4e93"/>
      <path id="Path_6733" data-name="Path 6733" d="M31.608,18.3a.759.759,0,0,1,.531.587c.224.616-.028.867-.559,1.119a1.006,1.006,0,0,0,.895,0,.892.892,0,0,0,.448-.867.662.662,0,0,1-.168-.308.7.7,0,0,1,.532-.867.715.715,0,0,1,.867.531c0,.056.028.112.028.168a.871.871,0,0,0,1.566-.671c-.615.139-1.006.084-1.175-.56a.678.678,0,0,1,.363-.923h.029a.787.787,0,0,1,.111-.559.718.718,0,0,1-.587-.7c0-.475.363-.643.755-.727a.841.841,0,0,1-.42-.671c0-.028,0-.056-.2-.139C32.419,14.774,31.8,15.864,31.608,18.3ZM34.852,16a1.394,1.394,0,0,0-.056.363.861.861,0,0,0-.419,1.09.9.9,0,0,0,1.175.727.694.694,0,0,1-1.23.419.35.35,0,0,0-.029-.168.892.892,0,0,0-1.733.419.671.671,0,0,0,.2.364.62.62,0,0,1-.363.643.852.852,0,0,1-.364.084.832.832,0,0,0,.28-1.119,1.108,1.108,0,0,0-.531-.644,6.4,6.4,0,0,1,.392-1.93,3.412,3.412,0,0,1,.867-.531,6.735,6.735,0,0,1,1.287-.363.879.879,0,0,0,.53.645Zm-.224-2.181a.763.763,0,0,0,.224.531.872.872,0,0,0-.559.867,6.845,6.845,0,0,0-1.287.392A2.637,2.637,0,0,0,32.28,16a4.631,4.631,0,0,1,2.349-2.182Z" transform="translate(-7.376 -6)" fill="#2c4e93"/>
      <path id="Path_6734" data-name="Path 6734" d="M38.042,13.368a.5.5,0,1,0,.5-.5.541.541,0,0,0-.5.5Zm.532-.391a.392.392,0,1,1-.392.392A.42.42,0,0,1,38.574,12.977Z" transform="translate(-10.426 -5.601)" fill="#2c4e93"/>
      <path id="Path_6735" data-name="Path 6735" d="M30.469,17.764a.5.5,0,1,0-.5.5h0a.5.5,0,0,0,.5-.5Zm-.895,0a.392.392,0,1,1,.392.392.42.42,0,0,1-.392-.392Z" transform="translate(-6.376 -7.676)" fill="#2c4e93"/>
      <path id="Path_6736" data-name="Path 6736" d="M37.379,11.328a.5.5,0,1,0-.5-.5h0A.483.483,0,0,0,37.379,11.328Zm0-.895a.392.392,0,1,1-.392.392.42.42,0,0,1,.392-.392Z" transform="translate(-9.875 -4.4)" fill="#2c4e93"/>
      <path id="Path_6737" data-name="Path 6737" d="M35.05,12.283a.5.5,0,1,0-.5-.5h0A.5.5,0,0,0,35.05,12.283Zm0-.895a.392.392,0,1,1-.392.392.368.368,0,0,1,.392-.392Z" transform="translate(-8.776 -4.851)" fill="#2c4e93"/>
      <path id="Path_6738" data-name="Path 6738" d="M31.078,15.937a.5.5,0,1,0-.5-.5h0A.5.5,0,0,0,31.078,15.937Zm0-.894a.392.392,0,1,1-.392.392.4.4,0,0,1,.392-.392Z" transform="translate(-6.901 -6.576)" fill="#2c4e93"/>
      <path id="Path_6739" data-name="Path 6739" d="M32.879,13.871a.5.5,0,1,0-.5-.5h0a.519.519,0,0,0,.5.5Zm0-.923a.391.391,0,1,1-.392.392.4.4,0,0,1,.392-.392Z" transform="translate(-7.751 -5.601)" fill="#2c4e93"/>
      <path id="Path_6740" data-name="Path 6740" d="M50.384,13.9a.5.5,0,1,0,.5-.5h0A.541.541,0,0,0,50.384,13.9Zm.923,0a.392.392,0,1,1-.392-.392.421.421,0,0,1,.392.392Z" transform="translate(-16.252 -5.851)" fill="#2c4e93"/>
      <path id="Path_6741" data-name="Path 6741" d="M46.12,7.144a.5.5,0,1,0-.5-.5h0A.5.5,0,0,0,46.12,7.144Zm0-.895a.392.392,0,1,1-.392.392h0A.382.382,0,0,1,46.12,6.249Z" transform="translate(-14.002 -2.425)" fill="#2c4e93"/>
      <path id="Path_6742" data-name="Path 6742" d="M48.557,6.721a.5.5,0,1,0-.5-.5h0a.5.5,0,0,0,.5.5Zm0-.9a.392.392,0,1,1-.392.392.4.4,0,0,1,.392-.392Z" transform="translate(-15.152 -2.225)" fill="#2c4e93"/>
      <path id="Path_6743" data-name="Path 6743" d="M29.383,20.863a.5.5,0,1,0-.5-.5h0A.5.5,0,0,0,29.383,20.863Zm0-.895a.392.392,0,1,1-.392.392.42.42,0,0,1,.392-.392Z" transform="translate(-6.101 -8.902)" fill="#2c4e93"/>
      <path id="Path_6744" data-name="Path 6744" d="M43.737,8.044a.5.5,0,1,0-.5-.5h0a.5.5,0,0,0,.5.5Zm0-.895a.392.392,0,1,1-.392.392h0A.4.4,0,0,1,43.737,7.149Z" transform="translate(-12.877 -2.85)" fill="#2c4e93"/>
      <path id="Path_6745" data-name="Path 6745" d="M40.873,13.615a.7.7,0,0,1,.839.615c.167.643-.14.895-.755,1.062a.875.875,0,0,0,1.706-.279.614.614,0,0,1-.112-.363.727.727,0,0,1,1.454,0c0,.084-.028.167-.028.223a.865.865,0,0,0,.839.644.881.881,0,0,0,.867-.811c-.644,0-1.006-.167-1.006-.839a.7.7,0,0,1,.643-.811c.112-.587.419-.643.895-.7-.308-.14-.615-.251-.615-.671a.783.783,0,0,1,.112-.363v-.7a.562.562,0,0,1-.112-.364A.783.783,0,0,1,45.71,9.9V9.2a.561.561,0,0,1-.112-.363V8.665a4.709,4.709,0,0,0-5.173,4.475A.687.687,0,0,1,40.873,13.615Zm4.558-4.782a1.167,1.167,0,0,0,.112.419v.587a.726.726,0,0,0-.112.419,1.17,1.17,0,0,0,.112.419v.363a7.752,7.752,0,0,0-4.614.671,4.47,4.47,0,0,1,4.5-2.879Zm.112,2.349v.112a.741.741,0,0,0,.168,1.006.827.827,0,0,0-.56.644.868.868,0,0,0-.671.951.917.917,0,0,0,.95,1.007.692.692,0,0,1-.867.448.607.607,0,0,1-.447-.448.629.629,0,0,0,.027-.224.881.881,0,1,0-1.762-.028.725.725,0,0,0,.111.419.711.711,0,0,1-.727.671.673.673,0,0,1-.56-.335.871.871,0,0,0,.671-1.2.863.863,0,0,0-.895-.755.887.887,0,0,0-.392-.392,5.563,5.563,0,0,1,.28-1.175,7.254,7.254,0,0,1,4.672-.7Z" transform="translate(-11.551 -3.61)" fill="#2c4e93"/>
      <path id="Path_6746" data-name="Path 6746" d="M52.31,13.03a.7.7,0,0,1,.644.811c0,.671-.363.839-1.006.839a.856.856,0,0,0,.922.811.865.865,0,0,0,.783-.644.6.6,0,0,1-.029-.223.714.714,0,0,1,1.426,0,.875.875,0,0,1-.083.363.9.9,0,0,0,.644.838.88.88,0,0,0,1.035-.559c-.616-.167-.922-.419-.755-1.062a.721.721,0,0,1,.782-.644h.056a.8.8,0,0,1,.475-.475A4.708,4.708,0,0,0,52.03,8.611c0,.055.028.112.028.168a.8.8,0,0,1-.111.363v.7a.563.563,0,0,1,.111.363.8.8,0,0,1-.111.363v.7a.8.8,0,0,1,.111.336c0,.419-.308.532-.615.671C51.891,12.386,52.2,12.442,52.31,13.03Zm-.252-2.377a.727.727,0,0,0,.112-.419.787.787,0,0,0-.112-.419V9.2a.727.727,0,0,0,.112-.419,4.455,4.455,0,0,1,4.474,2.88,8.076,8.076,0,0,0-4.586-.672v-.335Zm.112,1.007a.787.787,0,0,0-.112-.419v-.112a7.615,7.615,0,0,1,4.67.7A5.92,5.92,0,0,1,57.008,13a.882.882,0,0,0-.391.391.863.863,0,0,0-.895.755.887.887,0,0,0,.671,1.2.688.688,0,0,1-.951.224.744.744,0,0,1-.335-.56.8.8,0,0,0,.111-.419.9.9,0,0,0-.894-.895.883.883,0,0,0-.895.895.616.616,0,0,0,.028.224.707.707,0,0,1-1.341,0,.89.89,0,0,0,.951-1.006.852.852,0,0,0-.671-.951.871.871,0,0,0-.56-.644.619.619,0,0,0,.334-.56Z" transform="translate(-16.752 -3.585)" fill="#2c4e93"/>
      <path id="Path_6747" data-name="Path 6747" d="M41.46,9.528a.5.5,0,1,0-.5-.5h0A.5.5,0,0,0,41.46,9.528Zm0-.894a.391.391,0,1,1-.392.391.42.42,0,0,1,.392-.391Z" transform="translate(-11.802 -3.55)" fill="#2c4e93"/>
      <path id="Path_6748" data-name="Path 6748" d="M50.887,10.746a.5.5,0,1,0,.5.5h0A.5.5,0,0,0,50.887,10.746Zm0,.895a.392.392,0,1,1,.392-.392.382.382,0,0,1-.392.392Z" transform="translate(-16.252 -4.601)" fill="#2c4e93"/>
      <path id="Path_6749" data-name="Path 6749" d="M36.735,33.1A16.344,16.344,0,1,0,53.093,49.456,16.337,16.337,0,0,0,36.735,33.1Zm0,32.158a15.8,15.8,0,1,1,15.8-15.8,15.8,15.8,0,0,1-15.8,15.8Z" transform="translate(-2.1 -15.152)" fill="#2c4e93"/>
      <path id="Path_6750" data-name="Path 6750" d="M46.834,49.219l2.349,2.4,2.209-2.349a10.886,10.886,0,0,0-2.321-.392A9.014,9.014,0,0,0,46.834,49.219Zm2.377,1.621-1.287-1.314a5.44,5.44,0,0,1,1.147-.084,6.7,6.7,0,0,1,1.314.14Z" transform="translate(-14.577 -22.604)" fill="#2c4e93"/>
      <path id="Path_6751" data-name="Path 6751" d="M29.743,24.313a.82.82,0,0,0-.81-1.426.791.791,0,0,0-.308,1.091.81.81,0,0,0,1.118.336Zm-.726-1.343a.7.7,0,1,1-.28.95h0a.7.7,0,0,1,.28-.95Z" transform="translate(-5.93 -10.282)" fill="#2c4e93"/>
      <path id="Path_6752" data-name="Path 6752" d="M29.328,14.478a1.477,1.477,0,0,0,1.174.252.535.535,0,0,0,.475.587h.112a.283.283,0,0,0,.112.391.1.1,0,0,0,.084.028l-.14.531.531.308a.293.293,0,0,0-.028.335.311.311,0,0,0,.391.168h0a19.007,19.007,0,0,1,16.163,0,.31.31,0,0,0,.391-.14h0a.356.356,0,0,0-.027-.335l.559-.308-.14-.531a.289.289,0,0,0,.252-.336c0-.028-.028-.055-.028-.084a.56.56,0,0,0,.615-.448v-.14A1.459,1.459,0,0,0,51,14.506a1.013,1.013,0,0,0,1.2-.14c.336-.251.671-.895.28-1.314a.907.907,0,0,0-.14-1.2.849.849,0,0,0,.083-.363.878.878,0,0,0-.559-.811.852.852,0,0,0-.056-1.23,1.034,1.034,0,0,0-.392-.2.852.852,0,0,0,.084-.363.868.868,0,0,0-.923-.867h-.056a.605.605,0,0,0,.029-.224.872.872,0,0,0-.867-.867.792.792,0,0,0-.252.027.878.878,0,0,0-.895-.867.643.643,0,0,0-.392.112.882.882,0,0,0-1.118-.532.921.921,0,0,0-.392.28,1,1,0,0,0-.643-.224c0-.056.027-.112.027-.2a.871.871,0,0,0-.867-.867,1.413,1.413,0,0,0-.336.056.871.871,0,0,0-.867-.867.727.727,0,0,0-.419.112.882.882,0,0,0-1.118-.531.616.616,0,0,0-.224.14.918.918,0,0,0-.755-.419.545.545,0,0,0-.223.028,1.247,1.247,0,0,0-.616-.363v-.5h.587V1.531H40.6V1h-.811v.531H39.2v.783h.587l-.084.5a2.136,2.136,0,0,0-.532.335.627.627,0,0,0-.224-.027.918.918,0,0,0-.755.419.863.863,0,0,0-1.231.167.99.99,0,0,0-.139.224.905.905,0,0,0-1.2.336,1.027,1.027,0,0,0-.112.419,1.384,1.384,0,0,0-.334-.056.915.915,0,0,0-.895.867c0,.055,0,.14-.029.168a.9.9,0,0,0-.587.224.855.855,0,0,0-1.23-.14,1,1,0,0,0-.28.392.876.876,0,0,0-1.175.363.907.907,0,0,0-.112.392.8.8,0,0,0-.251-.056.872.872,0,0,0-.867.867h0a.3.3,0,0,1-.056.223A.915.915,0,0,0,28.8,8.8a1,1,0,0,0,.084.392.875.875,0,0,0-.644,1.062,1.049,1.049,0,0,0,.2.392.878.878,0,0,0-.559.811.765.765,0,0,0,.084.363.875.875,0,0,0-.14,1.2C27.231,13.7,28.35,15.038,29.328,14.478Zm2.378,2.014-.419-.224.14-.5.139.056.392.14-.111.419Zm17.309-.224-.5.28-.029-.168-.111-.448.559-.111Zm-.056-.672a.206.206,0,0,0-.168.056l-.587.224.168.671-.056.112c.307.14.083.363-.029.308a19.322,19.322,0,0,0-16.3,0c-.084.028-.14,0-.2-.084a.135.135,0,0,1,.056-.168c.029-.027.056-.027.084-.055l-.055-.112.167-.671-.615-.308a.169.169,0,0,1-.112.028c-.056,0-.112-.028-.112-.084a.144.144,0,0,1,.056-.112,20.977,20.977,0,0,1,17.756,0c.056.028.056.084.029.14,0,.029-.028.055-.084.055ZM28.21,11.905a.828.828,0,0,1-.139-.419c0-.475.336-.644.755-.727a.838.838,0,0,1-.419-.671c0-.475.364-.671.783-.727a.871.871,0,0,1-.2-.5.693.693,0,0,1,.7-.7h0a.865.865,0,0,1,.363.084.929.929,0,0,1-.14-.448.693.693,0,0,1,.7-.7h0a.942.942,0,0,1,.475.14.948.948,0,0,1-.028-.279.693.693,0,0,1,.7-.7h0a.807.807,0,0,1,.5.2c.084-.363.28-.671.727-.671a.708.708,0,0,1,.644.419.742.742,0,0,1,.615-.308,1.006,1.006,0,0,1,.308.056,1.047,1.047,0,0,1-.112-.392.693.693,0,0,1,.7-.7h0a.883.883,0,0,1,.532.2,1.03,1.03,0,0,1-.029-.308.693.693,0,0,1,.7-.7.762.762,0,0,1,.531.224.723.723,0,0,1,1.313-.363.755.755,0,0,1,.7-.532.973.973,0,0,1,.279.056,1.336,1.336,0,0,1,.727-.448V2.146h-.587V1.7H39.9V1.168h.476V1.7h.586v.448h-.586V2.9a1.33,1.33,0,0,1,.726.448,1.02,1.02,0,0,1,.28-.056.774.774,0,0,1,.7.531.788.788,0,0,1,.588-.279c.447,0,.644.307.727.671a.763.763,0,0,1,.532-.224.692.692,0,0,1,.7.7c0,.112-.029.2-.029.308a.883.883,0,0,1,.532-.2.692.692,0,0,1,.7.7,1.167,1.167,0,0,1-.112.419,1.186,1.186,0,0,1,.307-.056.691.691,0,0,1,.587.308.737.737,0,0,1,1.4.252.8.8,0,0,1,.5-.2.692.692,0,0,1,.7.7c0,.084-.028.2-.028.279a.94.94,0,0,1,.475-.14.693.693,0,0,1,.7.7.839.839,0,0,1-.141.447,1.647,1.647,0,0,1,.364-.056.693.693,0,0,1,.7.7.81.81,0,0,1-.2.5.735.735,0,0,1,.782.726.781.781,0,0,1-.419.671c.392.084.727.252.727.727a.755.755,0,0,1-.14.419.724.724,0,0,1,.14,1.175c.419.336.2.867-.14,1.147a.787.787,0,0,1-1.09.056,1.437,1.437,0,0,1-1.455.2l.084.168a.359.359,0,0,1-.168.475.325.325,0,0,1-.279,0,21.145,21.145,0,0,0-18.009,0,.328.328,0,0,1-.447-.167h0a.487.487,0,0,1,.084-.475,1.435,1.435,0,0,1-1.454-.2c-.895.616-1.93-.643-1.258-1.2A.762.762,0,0,1,28.21,11.905Z" transform="translate(-5.516)" fill="#2c4e93"/>
      <path id="Path_6753" data-name="Path 6753" d="M44.8,38.183,41.2,41.93a10.545,10.545,0,0,0-3.607-.644,11.342,11.342,0,0,0-3.747.644l-3.579-3.691A15.421,15.421,0,0,0,22.154,51.8a14.881,14.881,0,0,0,4,10.151l2.209-2.237A10.952,10.952,0,0,1,25.09,51.69a12.665,12.665,0,0,1,.755-4.054l1.51,1.537a8.813,8.813,0,0,0-.308,2.265,10.515,10.515,0,0,0,7.718,10.206v2.629h3.048V61.981a10.338,10.338,0,0,0,1.873-.224l2.685,2.74L43.8,65.952A15.293,15.293,0,0,0,50.7,59.827a14.752,14.752,0,0,0,2.265-8A15.573,15.573,0,0,0,44.8,38.183ZM49,61.253l-1.622-1.622a11.613,11.613,0,0,0,3.02-7.97,12.926,12.926,0,0,0-5.145-10.206l-2.1,2.125a10.236,10.236,0,0,1,2.629,2.74l-1.566,1.37a7.4,7.4,0,0,0-2.489-2.6l-4.167,4.39-4.306-4.418a7.942,7.942,0,0,0-3.607,6.544c-.084,3.663,2.293,6.235,5.648,7.354v-7.38h5.09v1.51H37.253v1.985h3.076v1.734H37.253V59.3a8.386,8.386,0,0,0,6.208-2.853L45,57.981a10.163,10.163,0,0,1-7.718,3.439v2.265H35.3V61.169a9.728,9.728,0,0,1-3.467-17.561L29.7,41.427a13.235,13.235,0,0,0-5.2,10.207,11.9,11.9,0,0,0,3.048,8.054l-1.426,1.454a14.181,14.181,0,0,1-3.5-9.34,14.978,14.978,0,0,1,7.494-12.89l3.523,3.663a10.771,10.771,0,0,1,3.888-.727,10.482,10.482,0,0,1,3.719.726l.112-.111,3.467-3.579A14.9,14.9,0,0,1,52.353,51.8,14.24,14.24,0,0,1,49,61.253Zm-9.508-13,2.293-2.432a6.96,6.96,0,0,1,2.265,2.741l2.461-2.126a10.427,10.427,0,0,0-2.517-2.907l1.343-1.37a12.49,12.49,0,0,1,4.53,9.48,10.27,10.27,0,0,1-1.509,5.7Zm-4.753,8.445V58.2a6.881,6.881,0,0,1-4.558-6.18Z" transform="translate(-2.926 -17.553)" fill="#2c4e93"/>
      <path id="Path_6754" data-name="Path 6754" d="M34.635,28.648A18.665,18.665,0,1,0,53.286,47.327,18.653,18.653,0,0,0,34.635,28.648Zm0,36.828a18.134,18.134,0,1,1,18.12-18.148v.027a18.134,18.134,0,0,1-18.12,18.12Z" transform="translate(0 -13.052)" fill="#2c4e93"/>
      <path id="Path_6755" data-name="Path 6755" d="M60.316,9.528a.5.5,0,1,0-.5-.5h0A.52.52,0,0,0,60.316,9.528Zm0-.894a.391.391,0,1,1-.391.391h0A.445.445,0,0,1,60.316,8.633Z" transform="translate(-20.703 -3.55)" fill="#2c4e93"/>
      <path id="Path_6756" data-name="Path 6756" d="M35.227,24.041a.924.924,0,0,1-.447.2,1.317,1.317,0,0,1-.392.783l.084.14c.531-.224,1.034-.448,1.594-.643l-.029-.168A1.342,1.342,0,0,1,35.227,24.041Zm-.5.839.252-.5a.975.975,0,0,0,.251-.112,1.383,1.383,0,0,0,.5.224c-.336.112-.672.251-1.007.391Z" transform="translate(-8.701 -10.877)" fill="#2c4e93"/>
      <path id="Path_6757" data-name="Path 6757" d="M38.466,16.016a.5.5,0,1,0-.5.5h0A.484.484,0,0,0,38.466,16.016Zm-.5.42a.392.392,0,1,1,.392-.392.4.4,0,0,1-.392.392Z" transform="translate(-10.151 -6.851)" fill="#2c4e93"/>
      <path id="Path_6758" data-name="Path 6758" d="M39.4,19.731a.824.824,0,1,0-1.007-.587A.842.842,0,0,0,39.4,19.731Zm-.364-1.481a.709.709,0,1,1-.5.867.7.7,0,0,1,.5-.867Z" transform="translate(-10.578 -8.078)" fill="#2c4e93"/>
      <path id="Path_6759" data-name="Path 6759" d="M40.064,21.763l-.168.055a1.335,1.335,0,0,1-.475,1.175l.084.112c.5-.14,1.006-.279,1.538-.391v-.168A1.338,1.338,0,0,1,40.064,21.763Zm-.308,1.118a1.5,1.5,0,0,0,.308-.755,1.62,1.62,0,0,0,.643.5c-.308.085-.642.14-.951.252Z" transform="translate(-11.077 -9.802)" fill="#2c4e93"/>
      <path id="Path_6760" data-name="Path 6760" d="M45.43,21.287a.8.8,0,0,1-.252.056h-.112a1.619,1.619,0,0,1-.615.811l.056.168c.559-.084,1.119-.168,1.706-.224l.029-.168A1.54,1.54,0,0,1,45.43,21.287Zm-.644.782a1.556,1.556,0,0,0,.392-.56.354.354,0,0,0,.168-.028,1.543,1.543,0,0,0,.5.448c-.336.056-.7.084-1.063.14Z" transform="translate(-13.452 -9.577)" fill="#2c4e93"/>
      <path id="Path_6761" data-name="Path 6761" d="M56.085,21.343h-.112a.815.815,0,0,1-.252-.056,1.676,1.676,0,0,1-.782.616v.167a16.636,16.636,0,0,1,1.7.224l.056-.168A1.335,1.335,0,0,1,56.085,21.343Zm-.811.587a1.932,1.932,0,0,0,.5-.448c.056,0,.111.029.167.029l.029.028a1.762,1.762,0,0,0,.363.531c-.336-.055-.7-.083-1.064-.139Z" transform="translate(-18.403 -9.577)" fill="#2c4e93"/>
      <path id="Path_6762" data-name="Path 6762" d="M51.476,17.489a.811.811,0,1,0-.811.811A.778.778,0,0,0,51.476,17.489Zm-1.537,0a.7.7,0,1,1,.7.7.692.692,0,0,1-.7-.7Z" transform="translate(-16.002 -7.401)" fill="#2c4e93"/>
      <path id="Path_6763" data-name="Path 6763" d="M50.7,20.386h-.14a1.319,1.319,0,0,1-.755,1.035l.029.168h1.621l.029-.168A1.417,1.417,0,0,1,50.7,20.386Zm-.084,1.006h-.5a1.524,1.524,0,0,0,.5-.671,1.422,1.422,0,0,0,.475.671Z" transform="translate(-15.977 -9.152)" fill="#2c4e93"/>
      <path id="Path_6764" data-name="Path 6764" d="M64.871,27.854a.5.5,0,1,0,.5.5h0a.5.5,0,0,0-.5-.5Zm0,.9a.392.392,0,1,1,.391-.392A.383.383,0,0,1,64.871,28.749Z" transform="translate(-22.853 -12.677)" fill="#2c4e93"/>
      <path id="Path_6765" data-name="Path 6765" d="M46.12,25.365a.5.5,0,1,0,.5.5h0A.5.5,0,0,0,46.12,25.365Zm0,.894a.392.392,0,1,1,.392-.392h0A.382.382,0,0,1,46.12,26.259Z" transform="translate(-14.002 -11.502)" fill="#2c4e93"/>
      <path id="Path_6766" data-name="Path 6766" d="M39.367,27.157l1.482.167,1.259-.867-1.51-.14Z" transform="translate(-11.052 -11.952)" fill="#2c4e93"/>
      <path id="Path_6767" data-name="Path 6767" d="M36.957,27.854a.5.5,0,1,0,.5.5h0A.5.5,0,0,0,36.957,27.854Zm0,.9a.392.392,0,1,1,.392-.392.383.383,0,0,1-.392.392Z" transform="translate(-9.676 -12.677)" fill="#2c4e93"/>
      <path id="Path_6768" data-name="Path 6768" d="M61.329,21.765l-.168-.056a1.315,1.315,0,0,1-.979.811v.168c.5.112,1.034.252,1.538.391l.083-.14A1.415,1.415,0,0,1,61.329,21.765Zm-.783.839a1.626,1.626,0,0,0,.644-.5,1.5,1.5,0,0,0,.307.755c-.336-.083-.643-.2-.951-.252Z" transform="translate(-20.878 -9.776)" fill="#2c4e93"/>
      <path id="Path_6769" data-name="Path 6769" d="M58.171,26.458l1.258.867,1.482-.167-1.231-.839Z" transform="translate(-19.928 -11.952)" fill="#2c4e93"/>
      <path id="Path_6770" data-name="Path 6770" d="M48.371,25.529l1.566.587,1.566-.587-1.566-.587ZM49.937,26l-1.258-.475,1.258-.475,1.259.475Z" transform="translate(-15.302 -11.302)" fill="#2c4e93"/>
      <path id="Path_6771" data-name="Path 6771" d="M55.654,25.365a.5.5,0,1,0,.5.5h0A.5.5,0,0,0,55.654,25.365Zm0,.894a.392.392,0,1,1,.391-.392.366.366,0,0,1-.391.392Z" transform="translate(-18.502 -11.502)" fill="#2c4e93"/>
      <path id="Path_6772" data-name="Path 6772" d="M71.359,17.764a.5.5,0,1,0,.5-.5h0A.5.5,0,0,0,71.359,17.764Zm.5-.391a.392.392,0,1,1-.392.392h0a.383.383,0,0,1,.392-.392Z" transform="translate(-26.154 -7.676)" fill="#2c4e93"/>
      <path id="Path_6773" data-name="Path 6773" d="M62.064,11.541a.5.5,0,1,0-.5-.5h0A.5.5,0,0,0,62.064,11.541Zm0-.895a.392.392,0,1,1-.392.392h0A.42.42,0,0,1,62.064,10.646Z" transform="translate(-21.528 -4.501)" fill="#2c4e93"/>
      <path id="Path_6774" data-name="Path 6774" d="M64.446,11.328a.5.5,0,1,0-.5-.5h0A.5.5,0,0,0,64.446,11.328Zm0-.895a.392.392,0,1,1-.392.392.447.447,0,0,1,.392-.392Z" transform="translate(-22.653 -4.4)" fill="#2c4e93"/>
      <path id="Path_6775" data-name="Path 6775" d="M66.778,12.283a.5.5,0,1,0-.5-.5h0A.5.5,0,0,0,66.778,12.283Zm0-.895a.392.392,0,1,1-.392.392A.4.4,0,0,1,66.778,11.388Z" transform="translate(-23.754 -4.851)" fill="#2c4e93"/>
      <path id="Path_6776" data-name="Path 6776" d="M64.228,13.67a.779.779,0,0,1-.419.671c.391.084.756.251.756.727a.7.7,0,0,1-.617.7.785.785,0,0,1,.112.56.7.7,0,0,1,.448.895.1.1,0,0,1-.029.056c-.168.644-.56.7-1.175.56a.87.87,0,0,0,1.566.671.353.353,0,0,1,.028-.167.719.719,0,1,1,1.4.335.662.662,0,0,1-.168.308.847.847,0,0,0,.448.867,1,1,0,0,0,.894,0c-.532-.252-.782-.5-.56-1.119a.86.86,0,0,1,.531-.587c-.2-2.4-.867-3.551-3.048-4.642Zm3.019,4.418a1.1,1.1,0,0,0-.531.644A.854.854,0,0,0,67,19.85a.676.676,0,0,1-.726-.671v-.084a.944.944,0,0,0,.167-.336.885.885,0,1,0-1.705-.475v.029c0,.055-.029.112-.029.168a.706.706,0,0,1-.979.112.679.679,0,0,1-.252-.5.889.889,0,0,0,1.175-.727.861.861,0,0,0-.419-1.09.823.823,0,0,0-.056-.363.88.88,0,0,0,.531-.643,9.818,9.818,0,0,1,1.287.392,2.823,2.823,0,0,1,.867.531,6.94,6.94,0,0,1,.391,1.9Zm-.5-2.181a3.731,3.731,0,0,0-.727-.419c-.419-.168-.867-.279-1.314-.448a.879.879,0,0,0-.56-.811.885.885,0,0,0,.224-.56A5.164,5.164,0,0,1,66.744,15.907Z" transform="translate(-22.35 -5.903)" fill="#2c4e93"/>
      <path id="Path_6777" data-name="Path 6777" d="M62.725,13.368a.5.5,0,1,0,.5-.5h0A.541.541,0,0,0,62.725,13.368Zm.5-.391a.392.392,0,1,1-.391.392.472.472,0,0,1,.391-.392Z" transform="translate(-22.078 -5.601)" fill="#2c4e93"/>
      <path id="Path_6778" data-name="Path 6778" d="M53.272,6.721a.5.5,0,1,0-.5-.5h0a.5.5,0,0,0,.5.5Zm0-.9a.392.392,0,1,1-.392.392A.4.4,0,0,1,53.272,5.826Z" transform="translate(-17.378 -2.225)" fill="#2c4e93"/>
      <path id="Path_6779" data-name="Path 6779" d="M58.037,8.044a.5.5,0,1,0-.5-.5h0a.5.5,0,0,0,.5.5Zm0-.895a.392.392,0,1,1-.392.392h0A.4.4,0,0,1,58.037,7.149Z" transform="translate(-19.627 -2.85)" fill="#2c4e93"/>
      <path id="Path_6780" data-name="Path 6780" d="M55.707,7.144a.5.5,0,1,0-.5-.5h0A.5.5,0,0,0,55.707,7.144Zm0-.895a.392.392,0,1,1-.392.392h0A.382.382,0,0,1,55.707,6.249Z" transform="translate(-18.527 -2.425)" fill="#2c4e93"/>
      <path id="Path_6781" data-name="Path 6781" d="M50.887,9.052a.5.5,0,1,0-.5-.5h0A.5.5,0,0,0,50.887,9.052Zm0-.895a.391.391,0,1,1-.391.391A.4.4,0,0,1,50.887,8.157Z" transform="translate(-16.252 -3.326)" fill="#2c4e93"/>
      <path id="Path_6782" data-name="Path 6782" d="M68.949,13.871a.5.5,0,1,0-.5-.5h0a.519.519,0,0,0,.5.5Zm0-.923a.391.391,0,1,1-.391.392h0A.475.475,0,0,1,68.949,12.948Z" transform="translate(-24.778 -5.601)" fill="#2c4e93"/>
      <path id="Path_6783" data-name="Path 6783" d="M72.282,22.891a.825.825,0,1,0-.782,1.454.783.783,0,0,0,1.09-.308.847.847,0,0,0-.308-1.146Zm.224,1.035a.7.7,0,1,1-.279-.95h0a.722.722,0,0,1,.279.95Z" transform="translate(-26.015 -10.287)" fill="#2c4e93"/>
      <path id="Path_6784" data-name="Path 6784" d="M64.369,16.016a.5.5,0,1,0-.5.5h0a.469.469,0,0,0,.5-.5Zm-.9,0a.392.392,0,1,1,.392.392.368.368,0,0,1-.392-.392Z" transform="translate(-22.379 -6.851)" fill="#2c4e93"/>
      <path id="Path_6785" data-name="Path 6785" d="M66.255,24.259c-.112-.029-.2-.084-.336-.112a1.561,1.561,0,0,1-.782.279l-.029.168c.532.2,1.064.392,1.595.644l.111-.139a1.732,1.732,0,0,1-.392-.783A.38.38,0,0,0,66.255,24.259Zm-.784.279a1.931,1.931,0,0,0,.5-.224.585.585,0,0,0,.307.112,1.9,1.9,0,0,0,.2.5c-.308-.139-.67-.279-1.007-.391Z" transform="translate(-23.203 -10.927)" fill="#2c4e93"/>
      <path id="Path_6786" data-name="Path 6786" d="M71.942,20.413a.5.5,0,1,0,.5-.5h0A.5.5,0,0,0,71.942,20.413Zm.5-.392a.392.392,0,1,1-.392.392h0a.383.383,0,0,1,.392-.392Z" transform="translate(-26.429 -8.927)" fill="#2c4e93"/>
      <path id="Path_6787" data-name="Path 6787" d="M70.75,15.937a.5.5,0,1,0-.5-.5h0A.5.5,0,0,0,70.75,15.937Zm0-.894a.392.392,0,1,1-.391.392.366.366,0,0,1,.391-.392Z" transform="translate(-25.629 -6.576)" fill="#2c4e93"/>
      <path id="Path_6788" data-name="Path 6788" d="M61.272,18.726a.808.808,0,0,0,1.567.392.789.789,0,0,0-.587-.979.824.824,0,0,0-.98.587Zm1.454.392a.709.709,0,1,1-.5-.867.69.69,0,0,1,.5.867Z" transform="translate(-21.38 -8.079)" fill="#2c4e93"/>
    </g>
  </g>
</svg>
